<?xml version="1.0" encoding="UTF-8"?>
<svg id="_レイヤー_2" data-name="レイヤー 2" xmlns="http://www.w3.org/2000/svg" viewBox="0 0 276.85 51.05">
  <defs>
    <style>
      .cls-1 {
        fill: #070102;
      }

      .cls-1, .cls-2, .cls-3 {
        stroke-width: 0px;
      }

      .cls-2 {
        fill: #d66624;
      }

      .cls-3 {
        fill: #e19e27;
      }
    </style>
  </defs>
  <g id="_レイヤー_1-2" data-name="レイヤー 1">
    <g>
      <g>
        <path class="cls-1" d="m90.05,36.33c.53.3,1.06.45,1.57.45s1.31-.17,2-.98l.12-.17c.73-1.34.49-2.69-.68-3.71l-.09-.07c-3.01-2.07-6.53-3.76-10.45-5l-.17-.04c-1.19-.16-2.09.32-2.59,1.32l-.07.18c-.33,1.13.05,2.16,1.03,2.81l.21.11c2.84,1.07,5.88,2.77,9.03,5.03l.1.07Z"/>
        <path class="cls-1" d="m111.09,22.29l-.22-.04c-1.48-.16-2.46.53-2.79,1.87-1.56,7.04-4.37,12.43-8.32,15.99-3.96,3.39-9.44,5.4-16.3,5.99-1.53.16-2.45,1.1-2.45,2.55,0,1.34.92,2.24,2.45,2.39h.09s.09,0,.09,0c7.79-.52,14.38-3.06,19.63-7.58,4.59-4.37,7.8-10.52,9.56-18.27.33-1.34-.32-2.43-1.74-2.91Z"/>
        <path class="cls-1" d="m83.49,21.96c3.57,1.39,6.99,3.1,10.2,5.1.54.3,1.06.45,1.57.45s1.31-.17,2-.98l.14-.22c.73-1.45.46-2.81-.82-3.76-3.21-2.07-7.15-3.75-11.68-4.99l-.13-.02c-1.19-.17-2.08.31-2.58,1.31l-.08.22c-.33,1.29.18,2.37,1.39,2.89Z"/>
        <path class="cls-1" d="m135.27,16.92h-13.22c-1.25,0-2.06.76-2.06,1.94s.81,1.95,2.06,1.95h12.42s.07,0,.1,0c0,.03,0,.06,0,.1v3.07h-11.96c-1.25,0-2.06.76-2.06,1.95s.81,1.94,2.06,1.94h11.96v4.3s-.11.02-.22.02h-12.3c-1.25,0-2.06.76-2.06,1.95s.81,1.94,2.06,1.94h13.22c2.18,0,3.42-1.2,3.42-3.31v-12.53c0-2.1-1.25-3.31-3.42-3.31Z"/>
        <path class="cls-2" d="m171.27,8.87h-23.7c-1.39,0-2.25.92-2.25,2.4s.86,2.4,2.25,2.4h24.16c.41,0,.93,0,.94,1.34-.69,5.98-2.89,10.87-6.53,14.52-3.87,3.87-9.35,6.33-16.28,7.3-1.22.18-1.95,1.07-1.95,2.39v.14c.19,1.22,1.13,1.95,2.55,1.95h.12c8.1-.94,14.54-3.75,19.15-8.35,4.92-4.92,7.68-11.02,8.2-18.21,0-1.69-.66-3.21-1.98-4.53-.92-.92-2.45-1.36-4.68-1.36Z"/>
        <path class="cls-1" d="m188.07,5.5c-1.48,0-2.4.92-2.4,2.4v16.56c0,1.48.92,2.4,2.4,2.4s2.4-.92,2.4-2.4V7.91c0-1.48-.92-2.4-2.4-2.4Z"/>
        <path class="cls-1" d="m207.7,4.59c-1.51,0-2.4,1.01-2.4,2.71v13.98c0,4.36-.97,7.53-2.89,9.45-2.16,2.16-5.9,3.65-11.11,4.42-1.22.17-1.95,1.07-1.95,2.39l.05.28c.3,1.07,1.11,1.68,2.22,1.68.13,0,.27,0,.39-.02,6.5-.63,11.22-2.48,14.02-5.5,2.71-2.92,4.08-7.19,4.08-12.7V7.29c0-1.69-.9-2.71-2.4-2.71Z"/>
        <path class="cls-1" d="m221.18,27.69c.19,0,.4-.02.6-.07l.19-.05c.99-.43,1.43-1.38,1.15-2.61-.63-2.13-1.43-4.01-2.41-5.64-.54-.82-1.44-1.15-2.39-.87l-.16.04-.13.09c-.88.58-1.14,1.53-.7,2.54.89,1.92,1.56,3.64,1.99,5.06.23.95.94,1.51,1.87,1.51Z"/>
        <path class="cls-1" d="m235.8,17.49c-1.29-.14-2.14.59-2.28,1.82-.58,4.91-1.86,8.38-3.81,10.32-1.95,1.95-5.2,3.24-9.66,3.81l-.19.04c-.92.31-1.41,1.13-1.26,2.18.06.36.38,1.54,2.04,1.54h.11c5.23-.56,9.24-2.19,11.9-4.86,2.51-2.51,4.15-6.74,4.86-12.58.13-1.24-.53-2.13-1.71-2.28Z"/>
        <path class="cls-1" d="m223.86,19.95c.94,1.6,1.75,3.42,2.41,5.39l.06.13c.37.75,1.06,1.16,1.92,1.16.12,0,.25,0,.38-.03l.27-.07c1-.43,1.43-1.37,1.16-2.6-.57-2.01-1.58-4.01-3.04-5.95-.53-.66-1.15-.79-1.58-.79-.23,0-.46.04-.7.12l-.13.05c-.95.47-1.28,1.45-.83,2.48l.06.11Z"/>
        <path class="cls-1" d="m253.99,36.33c.53.3,1.06.45,1.56.45.53,0,1.31-.17,2-.98l.12-.17c.74-1.34.49-2.69-.68-3.71l-.1-.07c-3.01-2.07-6.53-3.76-10.45-5l-.17-.04c-1.19-.16-2.09.32-2.59,1.32l-.07.18c-.33,1.13.05,2.16,1.03,2.81l.21.11c2.83,1.07,5.87,2.77,9.03,5.03l.1.07Z"/>
        <path class="cls-1" d="m275.02,22.29l-.21-.04c-1.48-.16-2.46.54-2.79,1.87-1.57,7.04-4.38,12.43-8.32,15.99-3.98,3.39-9.45,5.4-16.31,5.99-1.53.16-2.45,1.1-2.45,2.55,0,1.34.92,2.24,2.45,2.39h.09s.09,0,.09,0c7.79-.52,14.38-3.06,19.63-7.58,4.59-4.37,7.8-10.52,9.56-18.27.33-1.34-.32-2.42-1.75-2.9Z"/>
        <path class="cls-1" d="m247.43,21.96c3.57,1.39,6.99,3.1,10.2,5.1.53.3,1.06.45,1.56.45.53,0,1.31-.17,2.01-.98l.14-.22c.72-1.45.45-2.81-.82-3.76-3.22-2.07-7.15-3.75-11.68-4.99l-.13-.02c-1.19-.17-2.09.31-2.59,1.31l-.07.22c-.33,1.29.18,2.37,1.39,2.89Z"/>
        <path class="cls-1" d="m108.32,18.56c1.96,0,3.56-1.6,3.56-3.57s-1.6-3.57-3.56-3.57-3.57,1.6-3.57,3.57,1.6,3.57,3.57,3.57Z"/>
        <path class="cls-1" d="m101.19,18.89c1.25,0,2.27-1.02,2.27-2.27s-1.01-2.27-2.27-2.27-2.27,1.01-2.27,2.27,1.02,2.27,2.27,2.27Z"/>
        <circle class="cls-2" cx="173.33" cy="3.57" r="3.57"/>
        <circle class="cls-2" cx="164.82" cy="3.57" r="3.57"/>
        <path class="cls-1" d="m266.42,18.56c1.97,0,3.57-1.6,3.57-3.57s-1.6-3.57-3.57-3.57-3.57,1.6-3.57,3.57,1.6,3.57,3.57,3.57Z"/>
        <path class="cls-1" d="m273.55,18.89c1.25,0,2.27-1.02,2.27-2.27s-1.02-2.27-2.27-2.27-2.26,1.01-2.26,2.27,1.01,2.27,2.26,2.27Z"/>
      </g>
      <g>
        <path class="cls-3" d="m52.58,35.32c-2.7-.8-7.34-.5-8.91,1.52,2.78,2.62,4.9,8.9,5.69,14.21h15.25c-.48-3.5-1.81-6.77-2.9-8.64-2.86-4.5-5.86-6.12-9.14-7.09Z"/>
        <path class="cls-2" d="m5.99,31.07c3.31,0,5.99-2.68,5.99-5.99s-2.68-6-5.99-6S0,21.77,0,25.08s2.68,5.99,5.99,5.99Z"/>
        <g>
          <polygon class="cls-2" points="18.34 45.56 18.34 45.55 18.34 45.55 18.34 45.56"/>
          <path class="cls-2" d="m62.93,24.91v-2.47l-3.96-4.18v-4.57L49.77.13v-.02h-.02s0,0,0,0h-26.26v7.78h-5.49v19.76C9.01,32.71,1.24,41.26.12,51.05h22.2c2.22-12.17,12.26-20.42,22.71-20.42,3.88,0,7.99,1,11.72,2.96-3.76-4.21-8.47-7.53-13.64-9.33.71-.51,1.28-1.2,1.7-2.04.43-.87.64-1.77.64-2.69,0-1.17-.33-2.19-1-3.05-.66-.86-1.61-1.48-2.85-1.84.87-.4,1.57-.99,2.08-1.78.51-.79.77-1.66.77-2.61,0-.88-.21-1.67-.62-2.37-.41-.7-.93-1.27-1.56-1.69-.62-.43-1.32-.7-2.11-.84-.78-.13-1.98-.2-3.58-.2h-8.1v18.37c-2.7.62-5.49,1.63-8.2,2.95V10.05h5.49V2.27h22.69v11.97h5.49v8.64h5.28v10.93c3.9,4.56,6.43,10.33,6.74,17.24h3.08v-17.97l-6.1-8.17Zm-30.37-16.41h2.35c1.92,0,3.09.02,3.5.07.68.08,1.19.31,1.54.71.35.39.52.9.52,1.53s-.2,1.18-.6,1.58c-.4.4-.95.64-1.65.72-.39.04-1.38.07-2.98.07h-2.68v-4.68Zm0,8.06h3.3c1.86,0,3.07.1,3.63.29.56.19.98.5,1.28.92.29.43.44.94.44,1.54,0,.72-.19,1.3-.57,1.72-.38.43-.88.69-1.48.81-.4.09-1.33.13-2.81.13h-3.79v-5.42Zm-10.08,23.06c.39.79.51,1.62.34,2.48-.16.87-.65,1.71-1.46,2.52-.94.94-1.97,1.42-3.02,1.42h-.07c-1.08-.01-2.16-.55-3.19-1.57l-.31-.31,2.08-2.63.39.36c.6.56.94.69,1.07.73.36.08.63,0,.9-.28.42-.42.38-.67.37-.76-.02-.13-.16-.52-1.03-1.39l-6.04-6.04,2.46-2.46,5.93,5.93c.77.77,1.29,1.42,1.58,1.99Z"/>
        </g>
      </g>
    </g>
  </g>
</svg>