<?xml version="1.0" encoding="UTF-8"?>
<svg id="_レイヤー_2" data-name="レイヤー_2" xmlns="http://www.w3.org/2000/svg" viewBox="0 0 104 104">
  <defs>
    <style>
      .cls-1 {
        fill: #4cc764;
      }

      .cls-2 {
        fill: #fff;
      }
    </style>
  </defs>
  <g id="_レイヤー_1-2" data-name="レイヤー_1">
    <g>
      <circle class="cls-2" cx="52" cy="52" r="52"/>
      <g>
        <circle class="cls-1" cx="52" cy="52" r="34.05"/>
        <g>
          <path class="cls-2" d="M74.71,50.02c0-10.17-10.2-18.45-22.73-18.45s-22.73,8.28-22.73,18.45c0,9.12,8.09,16.76,19.01,18.2.74.16,1.75.49,2,1.12.23.57.15,1.47.07,2.06,0,0-.27,1.6-.32,1.95-.1.57-.46,2.25,1.97,1.23,2.43-1.02,13.09-7.71,17.86-13.2h0c3.29-3.61,4.87-7.28,4.87-11.35Z"/>
          <g>
            <path class="cls-1" d="M67.15,55.89c.24,0,.43-.19.43-.43v-1.61c0-.24-.2-.43-.43-.43h-4.34v-1.67h4.34c.24,0,.43-.19.43-.43v-1.61c0-.24-.2-.43-.43-.43h-4.34v-1.67h4.34c.24,0,.43-.19.43-.43v-1.61c0-.24-.2-.43-.43-.43h-6.39c-.24,0-.43.19-.43.43h0v9.91h0c0,.25.19.44.43.44h6.39Z"/>
            <path class="cls-1" d="M43.52,55.89c.24,0,.43-.19.43-.43v-1.61c0-.24-.2-.43-.43-.43h-4.34v-7.87c0-.24-.2-.43-.43-.43h-1.61c-.24,0-.43.19-.43.43v9.91h0c0,.25.19.44.43.44h6.39Z"/>
            <rect class="cls-1" x="45.32" y="45.1" width="2.48" height="10.79" rx=".43" ry=".43"/>
            <path class="cls-1" d="M58.34,45.1h-1.61c-.24,0-.43.19-.43.43v5.89l-4.54-6.13s-.02-.03-.03-.04c0,0,0,0,0,0,0,0-.02-.02-.03-.03,0,0,0,0,0,0,0,0-.02-.01-.02-.02,0,0,0,0-.01,0,0,0-.02-.01-.02-.02,0,0,0,0-.01,0,0,0-.02,0-.02-.01,0,0,0,0-.01,0,0,0-.02,0-.03-.01,0,0,0,0-.01,0,0,0-.02,0-.03,0,0,0-.01,0-.02,0,0,0-.02,0-.03,0,0,0-.01,0-.02,0,0,0-.02,0-.02,0,0,0-.02,0-.02,0,0,0,0,0-.01,0h-1.6c-.24,0-.43.19-.43.43v9.92c0,.24.19.43.43.43h1.61c.24,0,.43-.19.43-.43v-5.89l4.54,6.14s.07.08.11.11c0,0,0,0,0,0,0,0,.02.01.03.02,0,0,0,0,.01,0,0,0,.01,0,.02.01,0,0,.01,0,.02,0,0,0,0,0,.01,0,0,0,.02,0,.03,0,0,0,0,0,0,0,.04,0,.07.02.11.02h1.6c.24,0,.43-.19.43-.43v-9.92c0-.24-.19-.43-.43-.43Z"/>
          </g>
        </g>
      </g>
    </g>
  </g>
</svg>