<?xml version="1.0" standalone="no"?>
<!DOCTYPE svg PUBLIC "-//W3C//DTD SVG 20010904//EN"
 "http://www.w3.org/TR/2001/REC-SVG-20010904/DTD/svg10.dtd">
<svg version="1.0" xmlns="http://www.w3.org/2000/svg"
 width="180.000000pt" height="180.000000pt" viewBox="0 0 180.000000 180.000000"
 preserveAspectRatio="xMidYMid meet">
<metadata>
Created by potrace 1.14, written by Peter Selinger 2001-2017
</metadata>
<g transform="translate(0.000000,180.000000) scale(0.100000,-0.100000)"
fill="#000000" stroke="none">
<path d="M135 1781 c-52 -24 -111 -90 -125 -140 -7 -27 -10 -269 -8 -763 3
-799 -1 -745 68 -815 63 -64 48 -63 839 -63 685 0 718 1 756 20 50 24 88 58
112 101 17 32 18 77 21 757 2 498 -1 736 -8 763 -6 23 -29 60 -51 84 -72 78
-40 75 -848 75 -671 0 -719 -2 -756 -19z"/>
</g>
</svg>
