<?xml version="1.0" encoding="UTF-8"?>
<svg id="_レイヤー_2" data-name="レイヤー 2" xmlns="http://www.w3.org/2000/svg" viewBox="0 0 671.45 671.45">
  <defs>
    <style>
      .cls-1 {
        fill: #ff8b20;
        stroke-width: 0px;
      }

      .cls-2 {
        fill: none;
        stroke: #fff;
        stroke-linecap: round;
        stroke-linejoin: round;
        stroke-width: 33px;
      }
    </style>
  </defs>
  <g id="_レイヤー_1-2" data-name="レイヤー 1">
    <g>
      <circle class="cls-1" cx="335.72" cy="335.72" r="335.72"/>
      <path class="cls-2" d="m358.56,253.92c14.07,2.74,28.03,8.95,38.17,19.08,10.14,10.13,16.34,24.1,19.08,38.17m-47.71-124.04c29.23,3.25,55.53,17.39,76.33,38.17,20.81,20.78,34.88,47.11,38.17,76.33m0,142.68v51.71c.08,19.77-17.69,36.28-37.65,34.47-172.25.14-305.84-134.69-305.7-305.79-1.8-19.85,14.63-37.56,34.37-37.58h51.81c8.38-.08,16.51,2.88,22.86,8.33,18.07,15.51,29.69,68.15,25.22,89.07-3.49,16.34-19.96,27.77-31.16,38.94,24.59,43.16,60.39,78.88,103.63,103.42,11.2-11.18,22.65-27.61,39.02-31.09,21-4.47,73.97,7.17,89.42,25.36,5.48,6.45,8.39,14.69,8.18,23.14Z"/>
    </g>
  </g>
</svg>