<?xml version="1.0" encoding="UTF-8"?>
<svg id="_レイヤー_2" data-name="レイヤー 2" xmlns="http://www.w3.org/2000/svg" viewBox="0 0 671.45 671.45">
  <defs>
    <style>
      .cls-1 {
        fill: #fff;
      }

      .cls-1, .cls-2 {
        stroke-width: 0px;
      }

      .cls-2 {
        fill: #ff8b20;
      }
    </style>
  </defs>
  <g id="_2" data-name="2">
    <g>
      <circle class="cls-1" cx="335.72" cy="335.72" r="335.72"/>
      <path class="cls-2" d="m492.6,223.83c-9.3-28.2-35.94-48.56-67.17-48.56h-179.4c-31.28,0-57.91,20.42-67.16,48.61-2.33,6.98-3.59,14.41-3.59,22.14v179.4c0,.91,0,1.82.05,2.73.36,9.85,2.78,19.2,6.78,27.64,11.42,23.85,35.77,40.38,63.92,40.38h179.4c28.1,0,52.46-16.53,63.88-40.33v-.05c4.05-8.44,6.42-17.74,6.77-27.59v-.05c.1-.91.1-1.82.1-2.73v-179.4c0-7.73-1.26-15.22-3.58-22.19Zm-287,56.9l69.44,60.55-69.44,60.49v-121.04Zm219.83,185.12h-179.4c-19.25,0-35.33-13.44-39.41-31.44l87.63-76.41,10.56,9.2c8.84,7.73,19.91,11.62,30.87,11.57,11.02.05,22.09-3.84,30.93-11.57l10.56-9.2,87.68,76.47c-4.14,17.99-20.21,31.38-39.42,31.38Zm40.43-64.03l-69.49-60.6,69.49-60.55v121.14Zm0-154.65l-115.88,101.02c-4.1,3.54-9.15,5.3-14.3,5.3s-10.16-1.77-14.25-5.3l-115.83-101.02v-1.16c0-22.34,18.09-40.43,40.43-40.43h179.4c22.29,0,40.43,18.09,40.43,40.43v1.16h0Z"/>
    </g>
  </g>
</svg>