<svg viewBox="0 0 216 216" fill="none" xmlns="http://www.w3.org/2000/svg" id="Artist-Flat-Default--Streamline-Fluent-Emoji.svg" height="216" width="216"><desc>Artist Flat Default Streamline Emoji: https://streamlinehq.com</desc><path d="M60.74973 121.59787500000002C73.591875 110.99295000000001 90.05850000000001 104.625 108 104.625c17.941499999999998 0 34.407450000000004 6.36795 47.25 16.972875l14.807475000000002 40.254975L155.25 202.5H60.74973l-12.95919 -40.647149999999996 12.95919 -40.254975Z" fill="#e6e6e6" stroke-width="1"></path><path d="M108 138.190725c0.012825 9.44325 7.9731000000000005 17.058600000000002 17.685000000000002 17.058600000000002v-10.88775c0 -3.763125 -1.26225 -7.23735 -3.394575 -10.05615 9.098325 -1.343925 16.084574999999997 -8.9505 16.084574999999997 -18.109575 0 -10.106100000000001 -8.505 -18.32085 -18.9675 -18.32085h-22.814999999999998c-10.4625 0 -18.9675 8.21475 -18.9675 18.32085 0 9.159075 6.986249999999999 16.76565 16.084574999999997 18.109575 -2.1323250000000002 2.8188 -3.394575 6.293025 -3.394575 10.05615v10.88775c9.7119 0 17.672175 -7.61535 17.685000000000002 -17.058600000000002Z" fill="#f92f60" stroke-width="1"></path><path d="M33.751215 178.875c-0.134325 -23.017500000000002 10.678635 -43.6725 26.9987175 -57.375v80.86500000000001L33.88554 202.5l-0.134325 -23.625Z" fill="#d3d3d3" stroke-width="1"></path><path d="M155.25 202.5V121.5c16.47 13.657950000000001 27 34.279875 27 57.33584999999999V202.5h-27Z" fill="#d3d3d3" stroke-width="1"></path><path d="M33.199942500000006 202.499325h64.8444825l-14.5125 -39.825c-4.2957 -11.748375 -15.032925 -19.832175 -27.29025 -20.8224 -0.8417250000000001 -0.068175 -2.3425875 0.153225 -3.1906575 0.24029999999999999 -18.3904425 1.8987749999999999 -33.958574999999996 21.5271 -26.466075 42.2496l6.615 18.1575Z" fill="#ffce7c" stroke-width="1"></path><path d="M56.598885 141.885c-0.9450000000000001 -0.0675 -1.9574999999999998 -0.135 -2.9025 -0.135 -22.005 0 -37.3275 21.87 -29.835 42.592499999999994l6.615 18.1575h6.0075l-6.615 -18.1575c-7.155 -19.71 6.4125 -40.567499999999995 26.73 -42.4575Z" fill="#e19747" stroke-width="1"></path><path d="M55.620000000000005 170.36999999999998c4.6226025 0 8.37 -3.7476000000000003 8.37 -8.37s-3.7473975000000004 -8.37 -8.37 -8.37C50.997397500000005 153.63000000000002 47.25 157.3776 47.25 162s3.7473975000000004 8.37 8.37 8.37Z" fill="#f92f60" stroke-width="1"></path><path d="M75.87 190.61999999999998c4.6224 0 8.37 -3.7476000000000003 8.37 -8.37s-3.7476000000000003 -8.37 -8.37 -8.37S67.5 177.6276 67.5 182.25s3.7476000000000003 8.37 8.37 8.37Z" fill="#5092ff" stroke-width="1"></path><path d="M48.870000000000005 196.626825c4.6226025 0 8.37 -3.7476000000000003 8.37 -8.37s-3.7473975000000004 -8.37 -8.37 -8.37c-4.6226025 0 -8.37 3.7476000000000003 -8.37 8.37s3.7473975000000004 8.37 8.37 8.37Z" fill="#86d72f" stroke-width="1"></path><path d="M185.625 155.925675c3.7125000000000004 0 6.75 3.000375 6.75 6.66765v15.26985h-13.5v-15.26985c0 -3.667275 2.97 -6.66765 6.75 -6.66765Z" fill="#f59f00" stroke-width="1"></path><path d="M170.18167499999998 140.0625c-1.6287749999999999 9.2124 -1.8758249999999999 18.657675 -0.70065 28.012500000000003l3.7125000000000004 29.497500000000002c0.27 1.8900000000000001 1.8900000000000001 3.375 3.7800000000000002 3.375 1.9574999999999998 0 3.5775 -1.4175 3.7800000000000002 -3.375l3.7125000000000004 -29.497500000000002c1.1313 -9.36495 0.89775 -18.79065 -0.7209000000000001 -28.012500000000003l-6.900525 -2.662875 -6.6629249999999995 2.662875Z" fill="#8c5543" stroke-width="1"></path><path d="M183.77955 140.0625c-0.8099999999999999 -4.5225 -1.4620499999999998 -9.045 -2.87955 -13.4325h-8.1c-1.485 4.3875 -1.84275 8.91 -2.65275 13.4325h13.6323Z" fill="#e6e6e6" stroke-width="1"></path><path d="m166.61767500000002 113.0625 4.74255 -1.370925c2.025 0 4.6143 2.9585250000000003 4.6143 4.983524999999999 0 2.97 0.8532000000000001 3.4539750000000002 3.8232 3.4539750000000002 2.8518749999999997 0.0648 5.40135 0.0027 5.699025000000001 -2.7398249999999997 0.018225 0.243 0.027 0.48937499999999995 0.027 0.73575 0 5.6025 -4.5225 10.125 -10.125 10.125s-10.125 -4.5225 -10.125 -10.125c0 -1.6875 0.40499999999999997 -3.2399999999999998 1.1475000000000002 -4.6575 0.064125 -0.13635 0.130275 -0.27135 0.19642500000000002 -0.40499999999999997Z" fill="#f3ad61" stroke-width="1"></path><path d="M186.670575 101.7225c-0.40499999999999997 -0.3375 -0.8775000000000001 -0.47250000000000003 -1.35 -0.47250000000000003 -8.1675 0.54 -15.0525 4.3875 -18.6975 11.8125h4.5225c2.025 0 3.6450000000000005 1.6199999999999999 3.6450000000000005 3.6450000000000005 0 2.97 2.2950000000000004 5.534999999999999 5.265000000000001 5.534999999999999 2.97 0.0675 5.3325000000000005 -2.2950000000000004 5.4675 -5.1975 0 -0.3375 -0.0675 -0.675 -0.135 -1.0125v-0.0675c-1.0125 -4.3875 -0.3375 -8.1 1.7550000000000001 -11.8125 0.40499999999999997 -0.8099999999999999 0.20249999999999999 -1.8225000000000002 -0.47250000000000003 -2.4299999999999997Z" fill="#5092ff" stroke-width="1"></path><path d="M166.73714999999999 166.99499999999998c-2.52045 0 -4.672350000000001 2.16 -4.7337750000000005 4.9275 -0.0621 1.8225000000000002 0.7992 3.4425 2.0898 4.3875 -1.2291750000000001 0.8775000000000001 -2.0898 2.4299999999999997 -2.0898 4.185s0.7992 3.3075 2.0898 4.185c-1.2291750000000001 0.8775000000000001 -2.0898 2.4299999999999997 -2.0898 4.185s0.7992 3.3075 2.0898 4.185c-1.2906 0.9450000000000001 -2.0898 2.565 -2.0898 4.3875 0.061425 2.7674999999999996 2.213325 4.9275 4.7337750000000005 4.9275h20.28915c2.9511 0 5.3487 -2.6325000000000003 5.3487 -5.8725V172.8c0 -3.2399999999999998 -2.3976 -5.8725 -5.3487 -5.8725h-20.28915v0.0675Z" fill="#ffc83d" stroke-width="1"></path><path d="M108 124.875c-7.425000000000001 0 -13.5 -6.1263 -13.5 -13.613399999999999v-13.2732c0 -7.4871 6.075 -13.613399999999999 13.5 -13.613399999999999s13.5 6.1263 13.5 13.613399999999999v13.2732c0 7.4871 -6.075 13.613399999999999 -13.5 13.613399999999999Z" fill="#fcb100" stroke-width="1"></path><path d="M141.126975 28.551824999999997c3.474225 1.2149999999999999 6.61365 3.6450000000000005 8.6184 7.155 3.139425 5.534999999999999 2.672325 12.217500000000001 -0.8019000000000001 17.2125 -1.20285 1.7550000000000001 -1.870425 3.8474999999999997 -1.870425 5.94v28.1475c0 6.277500000000001 -3.9419999999999997 11.88 -9.821250000000001 13.905000000000001l-12.62655 4.3875v-50.152499999999996c-0.93555 -1.0125 -1.8035999999999999 -2.0925 -2.538675 -3.375 -1.136025 -1.9574999999999998 -1.7367749999999997 -4.05 -2.004075 -6.21 -0.601425 0.0675 -1.20285 0.135 -1.8711 0.135 -3.941325 0 -7.482375 -1.485 -10.28835 -3.8474999999999997 -2.73915 2.4299999999999997 -6.34635 3.8474999999999997 -10.28835 3.8474999999999997 -0.601425 0 -1.269 -0.0675 -1.870425 -0.135 -0.20047500000000001 2.0925 -0.8687250000000001 4.2525 -2.004075 6.21 -0.7350749999999999 1.2825 -1.536975 2.4299999999999997 -2.538675 3.375v50.085l-12.627225000000001 -4.3875c-5.878575 -2.0925 -9.820575 -7.6274999999999995 -9.820575 -13.905000000000001v-28.1475c0 -2.0925 -0.66825 -4.185 -1.8038025000000002 -5.94 -3.273615 -4.7924999999999995 -3.8748374999999995 -11.272499999999999 -1.002105 -16.672500000000003 1.9371825000000003 -3.7125000000000004 5.1441075000000005 -6.345 8.8188075 -7.6274999999999995l57.12052500000001 -7.290000000000001c2.071575 3.4425 5.411474999999999 6.0075 9.219825 7.290000000000001Z" fill="#f1a11e" stroke-width="1"></path><path d="M86.0625 71.71875c0 6.0581249999999995 -4.9106250000000005 10.96875 -10.96875 10.96875S64.125 77.776875 64.125 71.71875C64.125 65.660895 69.035625 60.75 75.09375 60.75s10.96875 4.910895 10.96875 10.96875Z" fill="#fdbb11" stroke-width="1"></path><path d="M153.5625 71.71875c0 6.0581249999999995 -4.9106250000000005 10.96875 -10.96875 10.96875s-10.96875 -4.9106250000000005 -10.96875 -10.96875c0 -6.057855 4.9106250000000005 -10.96875 10.96875 -10.96875s10.96875 4.910895 10.96875 10.96875Z" fill="#fdbb11" stroke-width="1"></path><path d="M115.9218 20.25h-15.841575c-17.74305 0 -30.628124999999997 13.8193425 -29.079 31.974209999999996l2.6757 39.222765C75.577725 104.791725 87.406425 114.75 101.3472 114.75h13.377825c14.010974999999998 0 25.769475 -9.958275 27.670275000000004 -23.303025l2.5353 -39.222765C146.9016 34.679002499999996 133.66485 20.25 115.9218 20.25Z" fill="#ffc83d" stroke-width="1"></path><path d="M81.04927500000001 69.39c1.0125 -4.1853375 4.7924999999999995 -7.2903375 9.315 -7.2903375 4.725 0 8.64 3.3075 9.45 7.7628375 0.20249999999999999 1.0125 -0.54 1.8900000000000001 -1.5525 1.8900000000000001h-15.389999999999999c-1.2149999999999999 0 -2.0925 -1.2149999999999999 -1.8225000000000002 -2.3625Z" fill="#ffffff" stroke-width="1"></path><path d="M132.68677499999998 69.39c-1.0125 -4.1853375 -4.7924999999999995 -7.2903375 -9.315 -7.2903375 -4.6575 0 -8.5725 3.3075 -9.45 7.7628375 -0.20249999999999999 1.0125 0.54 1.8900000000000001 1.5525 1.8900000000000001h15.389999999999999c1.2149999999999999 0 2.0925 -1.1475000000000002 1.8225000000000002 -2.3625Z" fill="#ffffff" stroke-width="1"></path><path d="M85.63995 70.13250000000001c0 -3.375135 2.7674999999999996 -6.142635 6.1425 -6.142635 3.4425 0 6.21 2.7674999999999996 6.1425 6.142635 0 0.54 -0.0675 1.08 -0.20249999999999999 1.6199999999999999h-11.88c-0.135 -0.54 -0.20249999999999999 -1.08 -0.20249999999999999 -1.6199999999999999Z" fill="#7d4533" stroke-width="1"></path><path d="M128.096775 70.13250000000001c0 -3.375135 -2.7674999999999996 -6.142635 -6.1425 -6.142635s-6.1425 2.7674999999999996 -6.1425 6.142635c0 0.54 0.0675 1.08 0.20249999999999999 1.6199999999999999h11.88c0.135 -0.54 0.20249999999999999 -1.08 0.20249999999999999 -1.6199999999999999Z" fill="#7d4533" stroke-width="1"></path><path d="M91.849275 66.62331c1.9574999999999998 0 3.5100000000000002 1.552365 3.5100000000000002 3.509865 0 0.6074999999999999 -0.20249999999999999 1.1475000000000002 -0.40499999999999997 1.6199999999999999h-6.21c-0.27 -0.47250000000000003 -0.40499999999999997 -1.0125 -0.40499999999999997 -1.6199999999999999 0 -1.9574999999999998 1.5525 -3.509865 3.5100000000000002 -3.509865Z" fill="#000000" stroke-width="1"></path><path d="M121.95495 66.62331c-1.9574999999999998 0 -3.5100000000000002 1.552365 -3.5100000000000002 3.509865 0 0.6074999999999999 0.135 1.1475000000000002 0.40499999999999997 1.6199999999999999h6.21c0.27 -0.47250000000000003 0.40499999999999997 -1.0125 0.40499999999999997 -1.6199999999999999 0 -1.9574999999999998 -1.5525 -3.509865 -3.5100000000000002 -3.509865Z" fill="#000000" stroke-width="1"></path><path d="M81.967275 54.0951075c-0.879525 0.6855975 -1.0368 1.954395 -0.351 2.8339875 0.683775 0.8772975000000001 1.9473749999999999 1.0360574999999999 2.8269 0.35667l0.016875 -0.012285c0.019575 -0.0147825 0.05669999999999999 -0.0413775 0.10934999999999999 -0.077895 0.10529999999999999 -0.0731025 0.274725 -0.18555750000000001 0.502875 -0.32265 0.45832500000000004 -0.274725 1.1475000000000002 -0.6445575 2.033775 -0.9946125 1.7732249999999998 -0.7001775 4.302449999999999 -1.3101749999999999 7.341975 -0.9526275000000001 1.107675 0.130275 2.110725 -0.661905 2.241 -1.7695125 0.130275 -1.10754 -0.6615 -2.1110624999999996 -1.769175 -2.2413375 -3.845475 -0.45245250000000004 -7.053749999999999 0.3212325 -9.29745 1.2073049999999999 -1.12185 0.4431375 -2.009475 0.9169875 -2.6277749999999997 1.287765 -0.30915 0.1856925 -0.55215 0.3463425 -0.72495 0.4656825l-0.3024 0.21951Z" fill="#d37034" stroke-width="1"></path><path d="M132.119775 56.929095c0.6851250000000001 -0.8795925000000001 0.5265 -2.14947 -0.353025 -2.8350675l-0.01215 -0.0096525 -0.020925 -0.01593 -0.0621 -0.046372500000000004c-0.050624999999999996 -0.03726 -0.119475 -0.0867375 -0.205875 -0.146475 -0.172125 -0.11934 -0.41512499999999997 -0.27999 -0.72495 -0.4656825 -0.617625 -0.3707775 -1.505925 -0.8446275 -2.6277749999999997 -1.287765 -2.2437 -0.8860725 -5.4513 -1.6597575 -9.296775 -1.2073049999999999 -1.107675 0.130275 -1.9001249999999998 1.1337975 -1.76985 2.2413375 0.130275 1.1076075 1.1340000000000001 1.8997875 2.241675 1.7695125 3.03885 -0.3575475 5.56875 0.25245 7.3412999999999995 0.9526275000000001 0.886275 0.350055 1.576125 0.7198875 2.033775 0.9946125 0.228825 0.1370925 0.397575 0.24954750000000003 0.5035499999999999 0.32265 0.052649999999999995 0.0365175 0.0891 0.0631125 0.10934999999999999 0.077895l0.016875 0.0128925c0.879525 0.678645 2.143125 0.51975 2.8269 -0.35727749999999997Z" fill="#d37034" stroke-width="1"></path><path d="M90.76927500000001 67.70317499999999c0 0.5967 -0.48329999999999995 1.08 -1.08 1.08 -0.596025 0 -1.08 -0.48329999999999995 -1.08 -1.08 0 -0.5963625 0.483975 -1.079865 1.08 -1.079865 0.5967 0 1.08 0.4835025 1.08 1.079865Z" fill="#ffffff" stroke-width="1"></path><path d="M121.144275 67.70317499999999c0 0.5967 -0.48329999999999995 1.08 -1.08 1.08 -0.596025 0 -1.08 -0.48329999999999995 -1.08 -1.08 0 -0.5963625 0.483975 -1.079865 1.08 -1.079865 0.5967 0 1.08 0.4835025 1.08 1.079865Z" fill="#ffffff" stroke-width="1"></path><path d="m105.60105 69.625575 -3.3466500000000003 11.7342c-0.694575 2.402325 0.947025 4.8721499999999995 3.2832 4.8721499999999995h4.9248c2.3361750000000003 0 3.9777750000000003 -2.469825 3.2832 -4.8721499999999995l-3.3466500000000003 -11.7342c-0.6939 -2.6077275 -4.0405500000000005 -2.6077275 -4.7979 0Z" fill="#ed9200" stroke-width="1"></path><path d="M108.00337499999999 92.514825c-3.715875 0 -7.2252 -0.9369000000000001 -10.183724999999999 -2.5947 -1.032075 -0.57645 -2.06415 0.648675 -1.445175 1.6578000000000002 2.4772499999999997 3.964275 6.74325 6.631875 11.628900000000002 6.631875 4.88565 0 9.15165 -2.6676 11.628900000000002 -6.631875 0.61965 -1.009125 -0.481275 -2.1627 -1.4445 -1.6578000000000002 -2.9592 1.6578000000000002 -6.4685250000000005 2.5947 -10.1844 2.5947Z" fill="#990839" stroke-width="1"></path><path d="M60.716249999999995 38.61c0 -3.0375 1.5525 -5.805 4.185 -7.357500000000001l1.8224325000000001 -1.08C84.67875 19.2375 105.33375000000001 13.5 126.39375000000001 13.5c15.93 0 28.822499999999998 12.8925 28.822499999999998 28.822499999999998 0 2.7 -2.2275 4.9275 -4.9275 4.9275h-80.9325c-4.7924999999999995 0 -8.64 -3.8474999999999997 -8.64 -8.64Z" fill="#212121" stroke-width="1"></path></svg>