<svg viewBox="0 0 216 216" fill="none" xmlns="http://www.w3.org/2000/svg" id="Man-Cook-Flat-Default--Streamline-Fluent-Emoji.svg" height="216" width="216"><desc>Man Cook Flat Default Streamline Emoji: https://streamlinehq.com</desc><path d="m155.115 121.5 -16.74 -3.375 -10.125 3.375 13.5 33.75 13.5 47.25h27v-23.636475c0 -23.094450000000002 -10.623825 -43.7508 -27.134999999999998 -57.363525Z" fill="#e6e6e6" stroke-width="1"></path><path d="m60.75 202.5 13.5 -40.5 -13.5 -40.5c-16.507327500000002 13.688324999999999 -27 34.3224 -27 57.363525V202.5h27Z" fill="#e6e6e6" stroke-width="1"></path><path d="m60.75 121.5 33.75 -6.75 33.75 6.75c14.692725 0 27 12.123000000000001 27 27.022275V202.5H60.75V121.5Z" fill="#f4f4f4" stroke-width="1"></path><path d="M155.1447 121.5H118.125c4.5549 3.186675 7.357500000000001 8.336925 7.357500000000001 14.31v11.272499999999999c-9.707849999999999 0 -17.597925 -7.87725 -17.6175 -17.580375 -0.02025 9.703125 -7.90965 17.580375 -17.6175 17.580375v-11.272499999999999c0 -5.973075 3.0726 -11.123325 7.6274999999999995 -14.31H60.75l0.0228825 -0.06885000000000001C73.571625 110.8188 89.971425 104.4225 107.86500000000001 104.4225c17.977275 0 34.455375 6.414525 47.279700000000005 17.077499999999997Z" fill="#f92f60" stroke-width="1"></path><path d="M87.75 70.875c0 5.5917 -4.5333 10.125 -10.125 10.125s-10.125 -4.5333 -10.125 -10.125c0 -5.5919025 4.5333 -10.125 10.125 -10.125s10.125 4.5330975 10.125 10.125Z" fill="#fdbb11" stroke-width="1"></path><path d="M148.5 70.875c0 5.5917 -4.5333 10.125 -10.125 10.125s-10.125 -4.5333 -10.125 -10.125c0 -5.5919025 4.5333 -10.125 10.125 -10.125s10.125 4.5330975 10.125 10.125Z" fill="#fdbb11" stroke-width="1"></path><path d="M105.17175 24.7043925c-17.912475 0 -32.121225 15.12702 -30.841424999999997 32.8644l2.491425 35.6757075c1.0773 11.177999999999999 9.966375 19.209825 20.808225 19.209825h20.74005c10.84185 0 19.663425 -7.965 20.808225 -19.209825l2.491425 -35.6757075c1.2797999999999998 -17.80434 -12.92895 -32.8644 -30.841424999999997 -32.8644h-5.656499999999999Z" fill="#ffc83d" stroke-width="1"></path><path d="M82.55182500000001 69.996825c1.0125 -3.91527 4.5225 -6.81777 8.775 -6.81777 4.3875 0 8.032499999999999 3.105 8.842500000000001 7.222770000000001 0.20249999999999999 0.9450000000000001 -0.54 1.7550000000000001 -1.485 1.7550000000000001h-14.3775c-1.1475000000000002 0 -2.025 -1.08 -1.7550000000000001 -2.16Z" fill="#ffffff" stroke-width="1"></path><path d="M131.0175 69.996825c-1.0125 -3.91527 -4.5225 -6.81777 -8.775 -6.81777 -4.3875 0 -8.032499999999999 3.105 -8.842500000000001 7.29027 -0.20249999999999999 0.9450000000000001 0.54 1.7550000000000001 1.485 1.7550000000000001h14.3775c1.1475000000000002 0 2.025 -1.08 1.7550000000000001 -2.2275Z" fill="#ffffff" stroke-width="1"></path><path d="M86.87249999999999 70.67182500000001c0 -3.24027 2.6325000000000003 -5.80527 5.805 -5.80527s5.7375 2.565 5.7375 5.80527c0 0.54 -0.0675 1.08 -0.20249999999999999 1.5525H87.075c-0.135 -0.54 -0.20249999999999999 -1.0125 -0.20249999999999999 -1.5525Z" fill="#7d4533" stroke-width="1"></path><path d="M126.69817499999999 70.67182500000001c0 -3.24027 -2.6325000000000003 -5.80527 -5.805 -5.80527s-5.7375 2.565 -5.7375 5.80527c0 0.54 0.0675 1.08 0.20249999999999999 1.5525h11.1375c0.135 -0.54 0.20249999999999999 -1.0125 0.20249999999999999 -1.5525Z" fill="#7d4533" stroke-width="1"></path><path d="M92.67750000000001 67.364865c1.8225000000000002 0 3.3075 1.4851349999999999 3.3075 3.307635 0 0.54 -0.135 1.0125 -0.40499999999999997 1.5525h-5.805c-0.27 -0.47250000000000003 -0.40499999999999997 -1.0125 -0.40499999999999997 -1.5525 0 -1.8225000000000002 1.485 -3.307635 3.3075 -3.307635Z" fill="#000000" stroke-width="1"></path><path d="M120.96067500000001 67.364865c-1.8225000000000002 0 -3.3075 1.4851349999999999 -3.3075 3.307635 0 0.54 0.135 1.0125 0.40499999999999997 1.5525h5.805c0.27 -0.47250000000000003 0.40499999999999997 -1.0125 0.40499999999999997 -1.5525 0 -1.8225000000000002 -1.485 -3.307635 -3.3075 -3.307635Z" fill="#000000" stroke-width="1"></path><path d="M91.731825 68.37750000000001c0 0.5589 -0.452925 1.0125 -1.0125 1.0125 -0.5589 0 -1.0125 -0.45359999999999995 -1.0125 -1.0125 0 -0.559575 0.45359999999999995 -1.012635 1.0125 -1.012635 0.559575 0 1.0125 0.45306 1.0125 1.012635Z" fill="#ffffff" stroke-width="1"></path><path d="M120.15 68.37750000000001c0 0.5589 -0.45359999999999995 1.0125 -1.0125 1.0125s-1.0125 -0.45359999999999995 -1.0125 -1.0125c0 -0.559575 0.45359999999999995 -1.012635 1.0125 -1.012635s1.0125 0.45306 1.0125 1.012635Z" fill="#ffffff" stroke-width="1"></path><path d="M135 47.8784925v-0.6288975c2.0115 0.055889999999999995 4.008825 0.0123525 6.004125 -0.031117500000000003 2.492775 -0.0543375 4.98285 -0.1086075 7.495875 0.031117500000000003l-3.502575 16.9798275c-0.365175 1.8237149999999998 -2.189025 3.2072625 -4.3058250000000005 3.2701725 0 0 0.438075 -5.2197075 0.656775 -8.6157 0.146475 -1.6979625 -0.656775 -3.3959924999999997 -2.189025 -4.590809999999999l-1.38645 -1.0691325C136.02195 51.840405000000004 135 49.89087 135 47.8784925Z" fill="#f1a11e" stroke-width="1"></path><path d="M71.056575 64.26951749999999 67.5 47.249595c1.5322500000000001 0 3.0483000000000002 0.0069525 4.55625 0.013905 2.9916 0.013770000000000001 5.951475 0.027405000000000002 8.94375 -0.013905v0.8696025000000001c0 2.04984 -1.0158749999999999 3.9133800000000005 -2.7580500000000003 5.2799175l-1.3068 0.99387c-1.5241500000000001 1.1180700000000001 -2.3219999999999996 2.7952424999999996 -2.176875 4.534515000000001 0.21735 3.3542775 0.652725 8.572095000000001 0.652725 8.572095000000001 -2.1046500000000004 -0.0621 -3.99195 -1.428705 -4.354425 -3.2300775Z" fill="#f1a11e" stroke-width="1"></path><path d="M126.76432500000001 59.939730000000004c0.675 0.54 1.4175 0.7425 2.16 0.7425 1.08 0 2.16 -0.47250000000000003 2.835 -1.35 1.1475000000000002 -1.5525 0.8775000000000001 -3.7800000000000002 -0.675 -4.995 -0.20249999999999999 -0.20249999999999999 -5.534999999999999 -4.2525 -13.2975 -3.3075 -1.9574999999999998 0.20249999999999999 -3.3075 1.9574999999999998 -3.105 3.9149999999999996 0.20249999999999999 1.9574999999999998 2.025 3.3075 3.9149999999999996 3.105 4.60755 -0.5265 7.802325 1.6423425 8.146575 1.87596l0.020925 0.014039999999999999Z" fill="#d37034" stroke-width="1"></path><path d="M81.80999999999999 59.264595c0.675 0.9450000000000001 1.7550000000000001 1.4175 2.835 1.4175 0.7425 0 1.485 -0.27 2.16 -0.7425 0 0 0.033075 -0.0200475 0.07087500000000001 -0.044685 0.5156999999999999 -0.3335175 3.63285 -2.3482575 8.096625 -1.845315 1.8900000000000001 0.27 3.7125000000000004 -1.1475000000000002 3.9149999999999996 -3.105 0.20249999999999999 -1.8900000000000001 -1.1475000000000002 -3.7125000000000004 -3.105 -3.9149999999999996 -7.694999999999999 -0.8775000000000001 -13.094999999999999 3.105 -13.2975 3.3075 -1.5525 1.2149999999999999 -1.8225000000000002 3.375 -0.675 4.9275Z" fill="#d37034" stroke-width="1"></path><path d="m105.23655000000001 69.402825 -3.803625 11.792250000000001c-0.7897500000000001 2.39895 1.076625 4.867425 3.7320749999999996 4.867425h5.67c2.65545 0 4.521825000000001 -2.468475 3.7320749999999996 -4.867425l-3.803625 -11.792250000000001c-0.8613 -2.5369875 -4.6656 -2.5369875 -5.5268999999999995 0Z" fill="#ed9200" stroke-width="1"></path><path d="M108.00337499999999 92.108475c-3.715875 0 -7.2252 -0.9369000000000001 -10.183724999999999 -2.5231500000000002 -1.032075 -0.57645 -2.06415 0.648675 -1.445175 1.6578000000000002 2.4772499999999997 3.9649500000000004 6.74325 6.631875 11.628900000000002 6.631875 4.88565 0 9.15165 -2.666925 11.628900000000002 -6.631875 0.61965 -1.009125 -0.481275 -2.162025 -1.4445 -1.6578000000000002 -3.02805 1.58625 -6.4685250000000005 2.5231500000000002 -10.1844 2.5231500000000002Z" fill="#990839" stroke-width="1"></path><path d="M71.3475 13.5h73.035c11.407499999999999 0 17.077499999999997 13.77 9.045 21.8025L148.5 40.5v6.75c0.0675 1.35 -1.35 2.565 -2.7 2.565H69.8625c-1.35 0 -2.3625 -1.2149999999999999 -2.3625 -2.565V40.5l-5.1975 -5.1975C54.269999999999996 27.27 59.940000000000005 13.5 71.3475 13.5Z" fill="#e6e6e6" stroke-width="1"></path><path d="M104.75999999999999 40.70196v-16.2c0 -1.6875 1.35 -3.105 3.105 -3.105 1.6875 0 3.105 1.35 3.105 3.105v16.2h-6.21Z" fill="#d3d3d3" stroke-width="1"></path><path d="M90.38250000000001 40.7020275h-6.1425l-5.4 -15.389999999999999c-0.675 -1.8900000000000001 0.7425 -3.8474999999999997 2.7674999999999996 -3.8474999999999997 1.2149999999999999 0 2.3625 0.8099999999999999 2.7674999999999996 1.9574999999999998l6.0075 17.28Z" fill="#d3d3d3" stroke-width="1"></path><path d="M125.279325 40.7020275h6.1425l5.4 -15.389999999999999c0.675 -1.8900000000000001 -0.7425 -3.8474999999999997 -2.7674999999999996 -3.8474999999999997 -1.2149999999999999 0 -2.3625 0.8099999999999999 -2.7674999999999996 1.9574999999999998l-6.0075 17.28Z" fill="#d3d3d3" stroke-width="1"></path><path d="M137.093175 145.866825c2.79585 0 5.0625 -2.26665 5.0625 -5.0625s-2.26665 -5.0625 -5.0625 -5.0625c-2.796525 0 -5.0625 2.26665 -5.0625 5.0625s2.265975 5.0625 5.0625 5.0625Z" fill="#d3d3d3" stroke-width="1"></path><path d="M137.093175 170.369325c2.79585 0 5.0625 -2.26665 5.0625 -5.0625s-2.26665 -5.0625 -5.0625 -5.0625c-2.796525 0 -5.0625 2.26665 -5.0625 5.0625s2.265975 5.0625 5.0625 5.0625Z" fill="#d3d3d3" stroke-width="1"></path><path d="M137.093175 194.939325c2.79585 0 5.0625 -2.265975 5.0625 -5.0625 0 -2.79585 -2.26665 -5.0625 -5.0625 -5.0625 -2.796525 0 -5.0625 2.26665 -5.0625 5.0625 0 2.796525 2.265975 5.0625 5.0625 5.0625Z" fill="#d3d3d3" stroke-width="1"></path><path d="M182.25 155.25c3.7125000000000004 0 6.75 2.769525 6.75 6.155325V175.5h-13.5v-14.094674999999999c0.0675 -3.3858 3.0375 -6.155325 6.75 -6.155325Z" fill="#f59f00" stroke-width="1"></path><path d="M184.410675 109.08c-2.16 -4.859999999999999 -7.0200000000000005 -7.965 -12.352500000000001 -7.965s-10.1925 3.105 -12.352500000000001 7.965c-3.105 6.8175 -3.105 14.647499999999999 0 21.5325 1.0125 2.2275 2.6325000000000003 4.1175 4.5225 5.534999999999999 1.8225000000000002 1.2825 2.97 3.375 2.97 5.67v46.98c0 2.6325000000000003 2.0925 4.9275 4.725 4.995 2.7 0.0675 4.9275 -2.16 4.9275 -4.859999999999999V141.75c0 -2.2275 1.1475000000000002 -4.32 2.97 -5.67 1.9574999999999998 -1.35 3.5100000000000002 -3.2399999999999998 4.5225 -5.534999999999999 3.105 -6.8175 3.105 -14.647499999999999 0.0675 -21.465Z" fill="#f3c07b" stroke-width="1"></path><path d="M172.05749999999998 105.636825c-4.05 0 -7.694999999999999 2.3625 -9.315 6.0075 -2.2950000000000004 5.13 -2.2950000000000004 11.069999999999999 0 16.2 1.6199999999999999 3.6450000000000005 5.265000000000001 6.0075 9.315 6.0075 4.05 0 7.694999999999999 -2.3625 9.315 -6.0075 2.2950000000000004 -5.13 2.2950000000000004 -11.069999999999999 0 -16.2 -1.6875 -3.6450000000000005 -5.3325000000000005 -6.0075 -9.315 -6.0075Z" fill="#f3ad61" stroke-width="1"></path><path d="M158.686425 172.125c0.061425 -2.7 2.213325 -5.0625 4.73445 -5.0625h20.22975c2.9511 0 5.349375 2.6325000000000003 5.349375 5.8725v23.6925c0 3.2399999999999998 -2.398275 5.8725 -5.349375 5.8725h-20.22975c-2.521125 0 -4.673025 -2.0925 -4.73445 -4.859999999999999 -0.061425 -1.8225000000000002 0.737775 -3.4425 2.02905 -4.3875 -1.291275 -0.8775000000000001 -2.0904749999999996 -2.4299999999999997 -2.0904749999999996 -4.185s0.860625 -3.3075 2.0904749999999996 -4.185c-1.291275 -0.8775000000000001 -2.0904749999999996 -2.4299999999999997 -2.0904749999999996 -4.185s0.860625 -3.3075 2.0904749999999996 -4.185c-1.22985 -0.9450000000000001 -2.0904749999999996 -2.565 -2.02905 -4.3875Z" fill="#ffc83d" stroke-width="1"></path></svg>