<svg viewBox="0 0 216 216" fill="none" xmlns="http://www.w3.org/2000/svg" id="Man-Health-Worker-Flat-Default--Streamline-Fluent-Emoji.svg" height="216" width="216"><desc>Man Health Worker Flat Default Streamline Emoji: https://streamlinehq.com</desc><path d="m143.268075 29.363985 -2.835 -1.4175c-2.025 -1.0125 -3.8474999999999997 -2.3625 -5.4675 -3.9149999999999996l-5.534999999999999 -5.534999999999999c-4.185 -4.185 -10.3275 -5.534999999999999 -15.8625 -3.6450000000000005 -3.5775 1.2825 -7.492500000000001 1.2825 -11.1375 0 -4.9275 -2.4299999999999997 -10.8 -1.485 -14.647499999999999 2.4299999999999997l-6.8175 6.75c-1.6199999999999999 1.6199999999999999 -3.4425 2.9025 -5.4675 3.9149999999999996l-2.835 1.4175c-5.264865 2.6325000000000003 -8.099865000000001 8.37 -7.087364999999999 14.175l3.779865 20.7225c0.40499999999999997 2.0925 4.2525 3.6448650000000002 4.2525 3.6448650000000002l68.715 -0.0675s3.7800000000000002 -1.6198649999999999 4.1175 -3.6448650000000002l3.7800000000000002 -20.7225c1.1475000000000002 -5.7375 -1.7550000000000001 -11.475 -6.952500000000001 -14.107499999999998Z" fill="#f1a11e" stroke-width="1"></path><path d="m108 108 -40.310325 5.134725c-2.4135299999999997 1.5633 -4.730264999999999 3.2622750000000003 -6.939675 5.0868L54 162l6.75 40.5h43.875l3.375 -3.375 3.375 3.375H155.25l6.75 -40.5 -6.75 -43.778475c-2.2167000000000003 -1.8306 -4.541399999999999 -3.534975 -6.9633 -5.102325L108 108Z" fill="#d3d3d3" stroke-width="1"></path><path d="M104.625 202.5h6.75v-38.271150000000006l36.0072 -51.685424999999995C135.967275 105.387075 122.4666 101.25 108 101.25c-12.7386 0 -24.727275 3.2076000000000002 -35.203275 8.859375L104.625 163.34865V202.5Z" fill="#00a6ed" stroke-width="1"></path><path d="m73.3806 131.24295 -5.40135 -0.965925c-0.82053 -0.13770000000000002 -1.3674825 -0.897075 -1.299105 -1.724625l0.961605 -15.387975c5.501925 -3.5694000000000004 11.506725000000001 -6.430725 17.8848 -8.4537l18.961425 44.88075 0.0351 0.13635c0.054674999999999994 0.212625 0.101925 0.3942 0.101925 0.6223500000000001v24.764400000000002c0 1.172475 -1.435725 1.72395 -2.25585 0.8964l-33.22755 -34.214400000000005c-0.6156 -0.621 -0.6156 -1.58625 -0.06885000000000001 -2.20725l5.19615 -5.72535c0.8208 -0.8964 0.342225 -2.414475 -0.8883 -2.621025Z" fill="#e6e6e6" stroke-width="1"></path><path d="m130.47344999999999 104.71072500000001 -18.961425 44.88075 -0.0351 0.13702499999999998c-0.054674999999999994 0.21194999999999997 -0.101925 0.39352499999999996 -0.101925 0.621675v24.764400000000002c0 1.172475 1.435725 1.724625 2.25585 0.8964l33.22755 -34.214400000000005c0.6156 -0.620325 0.6156 -1.58625 0.06885000000000001 -2.20725l-5.19615 -5.72535c-0.8208 -0.8964 -0.342225 -2.4137999999999997 0.8883 -2.621025l5.40135 -0.965925c0.8208 -0.13770000000000002 1.36755 -0.8964 1.299375 -1.724625l-0.9618749999999999 -15.387975c-5.501925 -3.5694000000000004 -11.506725000000001 -6.430725 -17.8848 -8.4537Z" fill="#e6e6e6" stroke-width="1"></path><path d="M155.25 118.22085v84.2778h27v-27c0 -23.05665 -10.50975 -43.659675 -27 -57.2778Z" fill="#e6e6e6" stroke-width="1"></path><path d="M60.75 202.49865V118.22085c-16.4903175 13.618125000000001 -27 34.22115 -27 57.2778v27h27Z" fill="#e6e6e6" stroke-width="1"></path><path d="M85.66155 123.93135c0 -12.07575 9.789525 -21.865949999999998 21.865949999999998 -21.865949999999998 12.07575 0 21.865949999999998 9.790199999999999 21.865949999999998 21.865949999999998v48.06h6.6231v-48.06c0 -15.733575000000002 -12.755474999999999 -28.489050000000002 -28.489050000000002 -28.489050000000002 -15.73425 0 -28.489050000000002 12.755474999999999 -28.489050000000002 28.489050000000002v10.55835c-8.420625000000001 1.55385 -14.850000000000001 8.925525 -14.850000000000001 17.85915v24.502499999999998c0 2.43675 2.0226375 4.4590499999999995 4.4590499999999995 4.4590499999999995h6.75c1.82925 0 3.31155 -1.4823 3.31155 -3.31155 0 -1.8285749999999998 -1.4823 -3.31155 -3.31155 -3.31155h-4.58595v-22.33845c0 -6.3963 5.190075 -11.538450000000001 11.538450000000001 -11.538450000000001 6.3963 0 11.538450000000001 5.190075 11.538450000000001 11.538450000000001v22.27095H89.91c-1.82925 0 -3.31155 1.4829750000000002 -3.31155 3.31155 0 1.82925 1.4823 3.31155 3.31155 3.31155h6.21c2.43675 0 4.39155 -1.9548 4.39155 -4.39155v-24.502499999999998c0 -8.864775 -6.372675 -16.301924999999997 -14.850000000000001 -17.8605v-10.557Z" fill="#635994" stroke-width="1"></path><path d="M64.18844999999999 160.1775v16.672500000000003c0 2.4360749999999998 1.9551375000000002 4.39155 4.39155 4.39155h3.9149999999999996v-6.6231h-1.6834500000000001V160.1775h-6.6231Z" fill="#0084ce" stroke-width="1"></path><path d="M100.51155 176.91750000000002v-16.672500000000003h-6.6231v14.44095H92.205v6.6231h3.9149999999999996c2.43675 0 4.39155 -1.955475 4.39155 -4.39155Z" fill="#0084ce" stroke-width="1"></path><path d="M132.7725 180.49635c4.697324999999999 0 8.505 -3.807675 8.505 -8.505s-3.807675 -8.505 -8.505 -8.505c-4.69665 0 -8.505 3.807675 -8.505 8.505s3.8083500000000003 8.505 8.505 8.505Z" fill="#0084ce" stroke-width="1"></path><path d="M132.7725 176.7825c2.646675 0 4.7924999999999995 -2.1458250000000003 4.7924999999999995 -4.7924999999999995 0 -2.646675 -2.1458250000000003 -4.7924999999999995 -4.7924999999999995 -4.7924999999999995 -2.64735 0 -4.7924999999999995 2.1458250000000003 -4.7924999999999995 4.7924999999999995 0 2.646675 2.14515 4.7924999999999995 4.7924999999999995 4.7924999999999995Z" fill="#1c5cd7" stroke-width="1"></path><path d="M86.77125000000001 71.8875c0 6.07635 -4.92615 11.0025 -11.0025 11.0025 -6.077025 0 -11.0027025 -4.92615 -11.0027025 -11.0025 0 -6.07635 4.9256775 -11.002365 11.0027025 -11.002365 6.07635 0 11.0025 4.926015 11.0025 11.002365Z" fill="#fdbb11" stroke-width="1"></path><path d="M151.23375000000001 71.8875c0 6.07635 -4.92615 11.0025 -11.0025 11.0025 -6.07635 0 -11.0025 -4.92615 -11.0025 -11.0025 0 -6.07635 4.92615 -11.002365 11.0025 -11.002365 6.07635 0 11.0025 4.926015 11.0025 11.002365Z" fill="#fdbb11" stroke-width="1"></path><path d="M108 124.875c-7.4574 0 -13.5 -6.38145 -13.5 -14.256675V101.25h27v9.368324999999999c0 7.875225 -6.0426 14.256675 -13.5 14.256675Z" fill="#fcb100" stroke-width="1"></path><path d="M73.062675 60.03747c-0.045225 -0.6455025000000001 -0.0891 -1.2720375000000002 -0.1296 -1.85247 -0.135 -1.9574999999999998 0.675 -3.8474999999999997 2.0925 -5.13l1.2825 -1.08c1.6875 -1.485 2.6325000000000003 -3.7125000000000004 2.6325000000000003 -5.94v-5.8725c0 -1.6199999999999999 1.1475000000000002 -3.105 2.7 -3.5100000000000002 4.32 -1.08 13.5 -2.9025 26.2575 -2.9025 12.757499999999999 0 21.9375 1.8225000000000002 26.2575 2.9025 1.6199999999999999 0.40499999999999997 2.7 1.8225000000000002 2.7 3.5100000000000002v5.805c0 2.2950000000000004 0.9450000000000001 4.455 2.6325000000000003 5.94l1.4175 1.2149999999999999c1.435725 1.23984 2.17755 3.04749 2.1033 4.934925L140.43375 94.7025c-1.1475000000000002 11.745 -10.395 20.115 -21.6675 20.115h-21.6c-11.272499999999999 0 -20.52 -8.37 -21.6675 -20.115l-2.4360749999999998 -34.66503Z" fill="#ffc83d" stroke-width="1"></path><path d="M128.82307500000002 59.3997975c0.675 0.47250000000000003 1.485 0.7425 2.2275 0.7425 1.08 0 2.16 -0.47250000000000003 2.9025 -1.4175 1.2149999999999999 -1.6199999999999999 0.9450000000000001 -3.9825 -0.675 -5.1975 -0.20249999999999999 -0.20249999999999999 -5.7375 -4.3875 -13.837499999999999 -3.4425 -2.025 0.27 -3.5100000000000002 2.0925 -3.2399999999999998 4.1175 0.27 2.025 2.0925 3.5100000000000002 4.1175 3.2399999999999998 4.783725 -0.5897475 8.104049999999999 1.6830450000000001 8.47935 1.9398825 0.011474999999999999 0.0077625 0.02565 0.017617499999999998 0.02565 0.017617499999999998Z" fill="#d37034" stroke-width="1"></path><path d="M82.04625 58.657365c0.7425 1.0125 1.8225000000000002 1.485 2.97 1.485 0.7425 0 1.485 -0.20249999999999999 2.16 -0.7425 0 0 0.033075 -0.020655 0.072225 -0.046305 0.532575 -0.3487725 3.7793249999999996 -2.477115 8.432775000000001 -1.911195 2.025 0.27 3.8474999999999997 -1.2149999999999999 4.1175 -3.1725 0.20249999999999999 -2.025 -1.2149999999999999 -3.8474999999999997 -3.2399999999999998 -4.1175 -8.032499999999999 -0.9450000000000001 -13.635 3.2399999999999998 -13.837499999999999 3.4425 -1.6199999999999999 1.2149999999999999 -1.8900000000000001 3.5100000000000002 -0.675 5.0625Z" fill="#d37034" stroke-width="1"></path><path d="M82.788075 69.795c1.0125 -4.04973 4.725 -7.08723 9.1125 -7.08723 4.590000000000001 0 8.37 3.3075 9.2475 7.55973 0.135 0.9450000000000001 -0.6074999999999999 1.8225000000000002 -1.5525 1.8225000000000002h-14.985000000000001c-1.1475000000000002 0 -2.0925 -1.08 -1.8225000000000002 -2.2950000000000004Z" fill="#ffffff" stroke-width="1"></path><path d="M133.210575 69.795c-1.0125 -4.04973 -4.725 -7.08723 -9.1125 -7.08723 -4.590000000000001 0 -8.37 3.3075 -9.2475 7.55973 -0.135 0.9450000000000001 0.6074999999999999 1.8225000000000002 1.5525 1.8225000000000002h14.985000000000001c1.2149999999999999 0 2.0925 -1.1475000000000002 1.8225000000000002 -2.2950000000000004Z" fill="#ffffff" stroke-width="1"></path><path d="M87.310575 70.53817500000001c0 -3.3077699999999997 2.7 -6.007770000000001 6.0075 -6.007770000000001s6.0075 2.7 5.94 6.007770000000001c0 0.6074999999999999 -0.0675 1.08 -0.20249999999999999 1.6199999999999999h-11.5425c-0.135 -0.54 -0.20249999999999999 -1.08 -0.20249999999999999 -1.6199999999999999Z" fill="#7d4533" stroke-width="1"></path><path d="M128.68875 70.53817500000001c0 -3.3077699999999997 -2.7 -6.007770000000001 -6.0075 -6.007770000000001s-6.0075 2.7 -5.94 6.007770000000001c0 0.6074999999999999 0.0675 1.08 0.20249999999999999 1.6199999999999999h11.5425c0.135 -0.54 0.20249999999999999 -1.08 0.20249999999999999 -1.6199999999999999Z" fill="#7d4533" stroke-width="1"></path><path d="M93.318075 67.094595c1.8900000000000001 0 3.4425 1.55223 3.4425 3.44223 0 0.54 -0.135 1.08 -0.40499999999999997 1.6199999999999999h-6.075c-0.27 -0.47250000000000003 -0.40499999999999997 -1.0125 -0.40499999999999997 -1.6199999999999999 0 -1.8900000000000001 1.5525 -3.44223 3.4425 -3.44223Z" fill="#000000" stroke-width="1"></path><path d="M122.680575 67.094595c-1.8900000000000001 0 -3.4425 1.55223 -3.4425 3.44223 0 0.54 0.135 1.08 0.40499999999999997 1.6199999999999999h6.075c0.27 -0.47250000000000003 0.40499999999999997 -1.0125 0.40499999999999997 -1.6199999999999999 0 -1.8900000000000001 -1.5525 -3.44223 -3.4425 -3.44223Z" fill="#000000" stroke-width="1"></path><path d="M92.34 68.174325c0 0.5967 -0.48329999999999995 1.08 -1.08 1.08s-1.08 -0.48329999999999995 -1.08 -1.08c0 -0.596025 0.48329999999999995 -1.0797299999999999 1.08 -1.0797299999999999s1.08 0.483705 1.08 1.0797299999999999Z" fill="#ffffff" stroke-width="1"></path><path d="M122.1075 68.174325c0 0.5967 -0.48329999999999995 1.08 -1.08 1.08 -0.596025 0 -1.08 -0.48329999999999995 -1.08 -1.08 0 -0.596025 0.483975 -1.0797299999999999 1.08 -1.0797299999999999 0.5967 0 1.08 0.483705 1.08 1.0797299999999999Z" fill="#ffffff" stroke-width="1"></path><path d="m105.46875 69.998175 -3.5100000000000002 11.272499999999999c-0.7425 2.2950000000000004 1.0125 4.6575 3.4425 4.6575h5.13c2.4299999999999997 0 4.1175 -2.3625 3.4425 -4.6575l-3.4425 -11.272499999999999c-0.8099999999999999 -2.4299999999999997 -4.2525 -2.4299999999999997 -5.0625 0Z" fill="#ed9200" stroke-width="1"></path><path d="M107.96624999999999 92.54182499999999c-3.6450000000000005 0 -7.0200000000000005 -0.8775000000000001 -9.9225 -2.3625 -0.9450000000000001 -0.54 -2.025 0.6074999999999999 -1.4175 1.5525 2.4299999999999997 3.7125000000000004 6.547499999999999 6.1425 11.34 6.1425s8.91 -2.4299999999999997 11.34 -6.1425c0.6074999999999999 -0.9450000000000001 -0.47250000000000003 -2.025 -1.4175 -1.5525 -2.9025 1.485 -6.277500000000001 2.3625 -9.9225 2.3625Z" fill="#990839" stroke-width="1"></path></svg>