<svg viewBox="0 0 216 216" fill="none" xmlns="http://www.w3.org/2000/svg" id="Man-Mage-Flat-Default--Streamline-Fluent-Emoji.svg" height="216" width="216"><desc>Man Mage Flat Default Streamline Emoji: https://streamlinehq.com</desc><path d="m68.85 68.24249999999999 -1.2149999999999999 2.3625h80.325l-1.1475000000000002 -2.2275c-1.31085 -2.5623675 -2.85255 -5.9076675000000005 -4.593375 -9.68355 -3.4802999999999997 -7.54974 -7.753725 -16.821135 -12.558375 -24.997139999999998l15.120000000000001 0.07101c4.331475 0 6.264 -5.6025 2.79855 -8.235C135 16.8752025 122.660325 13.5 107.7975 13.5c-13.43115 0 -25.9119 26.9294625 -34.143525 44.69121 -1.8211499999999998 3.9293775 -3.4344 7.410082500000001 -4.803975 10.05129Z" fill="#0074ba" stroke-width="1"></path><path d="m66.08317500000001 68.5125 -1.2825 2.565h85.995l-1.2149999999999999 -2.4299999999999997c-2.16 -4.185 -4.859999999999999 -7.965 -8.032499999999999 -11.272499999999999h-67.5c-3.105 3.3075 -5.805 7.0200000000000005 -7.965 11.1375Z" fill="#533566" stroke-width="1"></path><path d="m137.993625 124.860825 20.983725 0.014174999999999998C175.5 124.875 188.93249999999998 111.26902500000001 189 94.53375000000001c0 -16.7346 -13.4325 -30.340709999999998 -29.95515 -30.340709999999998L56.9552175 64.125C40.4328375 64.125 27 77.730975 27 94.46624999999999c0 16.7346 13.432837500000002 30.340575 29.888054999999998 30.340575l21.141945 0.014174999999999998L81 138.375l-14.65749 9.788174999999999c-2.5697925 1.8225000000000002 -5.004315 3.7800000000000002 -7.3035675 5.94 -8.7914025 8.235 -15.621592499999998 18.6975 -19.4086125 30.7125l-0.202905 0.54c-1.75824 5.534999999999999 -3.110805 11.406825 -3.9899249999999995 17.144325H87.75l20.1825 -6.75 23.6925 6.75h48.9375c-0.87885 -5.805 -2.16405 -11.744325 -3.9224249999999996 -17.414324999999998 -3.8542499999999995 -12.217500000000001 -10.752075 -22.8825 -19.74645 -31.185000000000002 -2.23155 -2.0925 -4.666275000000001 -3.9825 -7.101 -5.805L135 138.375l2.993625 -13.514175Z" fill="#00a6ed" stroke-width="1"></path><path d="M154.811925 121.5H61.1880075C45.9967275 121.5 33.75 110.94569999999999 33.75 97.875S46.0636875 74.25 61.1880075 74.25l93.6239175 0.0702c15.19155 0 27.438074999999998 10.554300000000001 27.438074999999998 23.625C182.25 110.94569999999999 169.93665 121.5 154.811925 121.5Z" fill="#0074ba" stroke-width="1"></path><path d="M84.375 100.9125c0 5.5917 -4.5333 10.125 -10.125 10.125s-10.125 -4.5333 -10.125 -10.125c0 -5.5923750000000005 4.5333 -10.125 10.125 -10.125s10.125 4.5326249999999995 10.125 10.125Z" fill="#fdbb11" stroke-width="1"></path><path d="M151.875 100.9125c0 5.5917 -4.5333 10.125 -10.125 10.125s-10.125 -4.5333 -10.125 -10.125c0 -5.5923750000000005 4.5333 -10.125 10.125 -10.125s10.125 4.5326249999999995 10.125 10.125Z" fill="#fdbb11" stroke-width="1"></path><path d="M141.67575 91.0575c0 -0.0675 0 -0.0675 0 0l0.065475 -0.7425c0.262575 -7.290000000000001 -5.384475 -13.702499999999999 -12.542175 -13.702499999999999h-42.355574999999995c-7.420274999999999 0 -13.19895 6.547499999999999 -12.542850000000001 14.107499999999998l1.9703249999999999 31.117500000000003c1.7070750000000001 13.1625 12.608324999999999 22.95 25.544700000000002 22.95h12.411225c12.936375 0 23.83695 -9.855 25.544025 -22.95l1.9048500000000002 -30.779999999999998Z" fill="#ffc83d" stroke-width="1"></path><path d="M74.33235 88.5654c-0.011474999999999999 -0.10124999999999999 -0.1647 -0.14107499999999998 -0.17685 -0.039825C73.068075 97.64009999999999 63.269235 184.343175 81.8478 202.5h52.090425c18.68265 -18.06975 8.9343 -105.23925 7.897499999999999 -114.033825 -0.011474999999999999 -0.100575 -0.15997499999999998 -0.06075 -0.1728 0.03915 -0.6885 5.373 -5.9832 37.584675000000004 -33.96465 37.584675000000004 -27.878850000000003 0 -32.73345 -31.976775000000004 -33.365925000000004 -37.5246Z" fill="#e6e6e6" stroke-width="1"></path><path d="M108 122.313375c-3.738825 0 -7.200225 -0.8775000000000001 -10.17765 -2.3625 -0.9693 -0.54 -2.076975 0.6074999999999999 -1.45395 1.5525 2.492775 3.7125000000000004 6.71625 6.1425 11.6316 6.1425 4.8465 0 9.138825 -2.4299999999999997 11.6316 -6.1425 0.6230249999999999 -0.9450000000000001 -0.48465 -2.025 -1.45395 -1.5525 -2.9774249999999998 1.485 -6.438825 2.3625 -10.17765 2.3625Z" fill="#990839" stroke-width="1"></path><path d="M105.73335 113.59237499999999c1.426275 -0.713475 3.105675 -0.713475 4.53195 0l20.25 10.125c2.5029000000000003 1.2514500000000002 3.5174250000000002 4.2957 2.265975 6.7986 -1.2514500000000002 2.5029000000000003 -4.295025 3.5174250000000002 -6.797925000000001 2.265975l-17.984025 -8.991675 -17.984025 8.991675c-2.5029000000000003 1.2514500000000002 -5.546475 0.236925 -6.7986 -2.265975 -1.2514500000000002 -2.5029000000000003 -0.236925 -5.54715 2.26665 -6.7986l20.25 -10.125Z" fill="#d3d3d3" stroke-width="1"></path><path d="M81.82957499999999 89.246475c1.12995 1.47825 3.242025 1.762425 4.7223 0.6372l-0.010125 0.0081 0.077625 -0.054674999999999994c0.0837 -0.05669999999999999 0.228825 -0.15187499999999998 0.42997500000000005 -0.27 0.40365 -0.23895 1.0246499999999998 -0.5676749999999999 1.8251999999999997 -0.8801999999999999 1.6044749999999999 -0.62505 3.8738249999999996 -1.1637 6.573825 -0.8397 1.8501750000000001 0.222075 3.530925 -1.098225 3.753 -2.9484000000000004 0.222075 -1.8508499999999999 -1.098225 -3.530925 -2.949075 -3.753 -4.050675 -0.48667499999999997 -7.4506499999999996 0.32535 -9.82935 1.252125 -1.190025 0.4644 -2.1384000000000003 0.96255 -2.805975 1.3567500000000001 -0.3348 0.197775 -0.601425 0.370575 -0.79515 0.5022 -0.0972 0.06615 -0.176175 0.122175 -0.23625000000000002 0.16605l-0.07695 0.056025 -0.027675 0.020925 -0.011474999999999999 0.0081 -0.00945 0.007425c-1.480275 1.13265 -1.7631 3.2508 -0.63045 4.731075Z" fill="#9b9b9b" stroke-width="1"></path><path d="M127.66814999999998 81.817425c-2.191725 -0.6398999999999999 -4.960575 -1.05165 -8.122275 -0.6723 -1.8508499999999999 0.222075 -3.17115 1.902825 -2.949075 3.7536750000000003 0.222075 1.8501750000000001 1.902825 3.170475 3.753 2.9484000000000004 1.998 -0.23962499999999998 3.7584 -0.007425 5.1894 0.382725l4.316625 2.022975c1.561275 0.7310249999999999 3.4229249999999998 0.168075 4.3172999999999995 -1.30545 0.894375 -1.473525 0.5346000000000001 -3.3844499999999997 -0.834975 -4.432049999999999l-1.6362 -1.0341c-0.957825 -0.525825 -2.326725 -1.16505 -4.0338 -1.663875Z" fill="#9b9b9b" stroke-width="1"></path><path d="M82.281825 99.9c1.0125 -4.1175 4.7924999999999995 -7.2225 9.2475 -7.2225 4.6575 0 8.505 3.3075 9.382499999999999 7.694999999999999 0.20249999999999999 0.9450000000000001 -0.54 1.8225000000000002 -1.5525 1.8225000000000002h-15.254999999999999c-1.2149999999999999 0 -2.0925 -1.1475000000000002 -1.8225000000000002 -2.2950000000000004Z" fill="#ffffff" stroke-width="1"></path><path d="M133.51567500000002 99.9c-1.0125 -4.1175 -4.7924999999999995 -7.2225 -9.2475 -7.2225 -4.6575 0 -8.505 3.3075 -9.382499999999999 7.694999999999999 -0.20249999999999999 0.9450000000000001 0.54 1.8225000000000002 1.5525 1.8225000000000002h15.254999999999999c1.2149999999999999 0 2.0925 -1.1475000000000002 1.8225000000000002 -2.2950000000000004Z" fill="#ffffff" stroke-width="1"></path><path d="M86.873175 100.575c0 -3.375 2.7 -6.075 6.075 -6.075s6.1425 2.7 6.075 6.075c0 0.54 -0.0675 1.08 -0.20249999999999999 1.6199999999999999h-11.745c-0.135 -0.54 -0.20249999999999999 -1.08 -0.20249999999999999 -1.6199999999999999Z" fill="#7d4533" stroke-width="1"></path><path d="M128.925 100.575c0 -3.375 -2.7 -6.075 -6.075 -6.075s-6.1425 2.7 -6.075 6.075c0 0.54 0.0675 1.08 0.20249999999999999 1.6199999999999999h11.745c0.135 -0.54 0.20249999999999999 -1.08 0.20249999999999999 -1.6199999999999999Z" fill="#7d4533" stroke-width="1"></path><path d="M92.94749999999999 97.06500000000001c1.9574999999999998 0 3.5100000000000002 1.5525 3.5100000000000002 3.5100000000000002 0 0.6074999999999999 -0.135 1.1475000000000002 -0.47250000000000003 1.6199999999999999h-6.1425c-0.27 -0.47250000000000003 -0.40499999999999997 -1.0125 -0.40499999999999997 -1.6199999999999999 0 -1.9574999999999998 1.5525 -3.5100000000000002 3.5100000000000002 -3.5100000000000002Z" fill="#000000" stroke-width="1"></path><path d="M122.849325 97.06500000000001c-1.9574999999999998 0 -3.5100000000000002 1.5525 -3.5100000000000002 3.5100000000000002 0 0.6074999999999999 0.135 1.1475000000000002 0.47250000000000003 1.6199999999999999h6.1425c0.27 -0.47250000000000003 0.40499999999999997 -1.0125 0.40499999999999997 -1.6199999999999999 0 -1.9574999999999998 -1.5525 -3.5100000000000002 -3.5100000000000002 -3.5100000000000002Z" fill="#000000" stroke-width="1"></path><path d="M91.93499999999999 98.145c0 0.5967 -0.48329999999999995 1.08 -1.08 1.08 -0.596025 0 -1.08 -0.48329999999999995 -1.08 -1.08s0.483975 -1.08 1.08 -1.08c0.5967 0 1.08 0.48329999999999995 1.08 1.08Z" fill="#ffffff" stroke-width="1"></path><path d="M122.03999999999999 98.145c0 0.5967 -0.48329999999999995 1.08 -1.08 1.08s-1.08 -0.48329999999999995 -1.08 -1.08 0.48329999999999995 -1.08 1.08 -1.08 1.08 0.48329999999999995 1.08 1.08Z" fill="#ffffff" stroke-width="1"></path><path d="m105.7725 100.035 -3.5100000000000002 11.407499999999999c-0.7425 2.3625 1.0125 4.725 3.5100000000000002 4.725h5.265000000000001c2.4299999999999997 0 4.185 -2.3625 3.5100000000000002 -4.725l-3.5100000000000002 -11.407499999999999c-0.8775000000000001 -2.4975 -4.455 -2.4975 -5.265000000000001 0Z" fill="#ed9200" stroke-width="1"></path><path d="M182.25 155.25c3.7428749999999997 0 6.75 2.73645 6.75 6.141825V175.5h-13.5v-14.108175000000001c0 -3.405375 3.0071250000000003 -6.141825 6.75 -6.141825Z" fill="#f59f00" stroke-width="1"></path><path d="M183.9375 35.775067500000006c-1.35 -0.7425 -3.0375 0.27 -3.0375 1.8225000000000002v10.935c0 2.97 -2.4299999999999997 5.4675 -5.4 5.4 -2.835 -0.0675 -5.1975 -2.3625 -5.1975 -5.265000000000001v-11.069999999999999c0 -1.5525 -1.6875 -2.565 -3.0375 -1.8225000000000002 -5.4675 2.97 -9.180000000000001 8.7075 -9.2475 15.3225 -0.0675 6.8175 3.9149999999999996 12.825 9.6525 15.794999999999998 0.675 0.3375 1.08 1.0124325 1.08 1.7549325v107.3925c0 3.8474999999999997 3.1725 7.0200000000000005 7.0200000000000005 7.0200000000000005 3.8474999999999997 0 6.4799999999999995 -3.1725 6.4799999999999995 -7.0200000000000005V68.6475c0 -0.7425 0.9450000000000001 -1.5524325 1.6199999999999999 -1.8899325 5.534999999999999 -2.97 9.315 -8.775 9.315 -15.524999999999999 0 -6.6825 -3.7125000000000004 -12.4875 -9.2475 -15.4575Z" fill="#f3ad61" stroke-width="1"></path><path d="M158.628375 170.60895000000002c0.06075 -2.861325 2.2470749999999997 -5.23395 4.737825 -5.23395h20.288475000000002c2.9760750000000002 0 5.345325000000001 2.7216 5.345325000000001 6.1411500000000006v24.8427c0 3.4195500000000005 -2.36925 6.1411500000000006 -5.345325000000001 6.1411500000000006h-20.288475000000002c-2.49075 0 -4.677074999999999 -2.2329 -4.737825 -5.094225000000001 -0.06075 -1.954125 0.789075 -3.6287999999999996 2.064825 -4.605525 -1.2149999999999999 -0.9071999999999999 -2.064825 -2.581875 -2.064825 -4.396275s0.849825 -3.4195500000000005 2.064825 -4.3969499999999995c-1.2149999999999999 -0.9071999999999999 -2.064825 -2.581875 -2.064825 -4.396275s0.849825 -3.4195500000000005 2.064825 -4.396275c-1.27575 -0.976725 -2.125575 -2.7216 -2.064825 -4.605525Z" fill="#ffc83d" stroke-width="1"></path><path d="M175.5 60.5472975c10.2519 0 18.5625 -8.310735 18.5625 -18.5625s-8.3106 -18.5625 -18.5625 -18.5625 -18.5625 8.310735 -18.5625 18.5625 8.3106 18.5625 18.5625 18.5625Z" fill="#00d1ed" stroke-width="1"></path><path d="M186.9075 31.320135c2.2950000000000004 3.105 2.0925 7.155 -0.47250000000000003 9.045s-6.4799999999999995 0.8775000000000001 -8.775 -2.2275c-2.3625 -3.105 -2.16 -7.155 0.40499999999999997 -9.045s6.547499999999999 -0.8775000000000001 8.842500000000001 2.2275Z" fill="#b4f6fc" stroke-width="1"></path><g opacity=".5"><path d="M121.09635 105.424875c-0.7505999999999999 -0.783675 -1.9946249999999999 -0.8099999999999999 -2.777625 -0.0594 -0.783675 0.751275 -0.8099999999999999 1.9946249999999999 -0.0594 2.7783l2.6244 1.9642499999999998c1.62405 0.933525 4.002075 1.881225 6.961950000000001 1.881225 1.0847250000000002 0 1.9649250000000003 -0.879525 1.9649250000000003 -1.9649250000000003 0 -1.0854 -0.8801999999999999 -1.9649250000000003 -1.9649250000000003 -1.9649250000000003 -2.1033 0 -3.809025 -0.6723 -5.0031 -1.358775 -0.58185 -0.36922499999999997 -1.746225 -1.141425 -1.746225 -1.27575Z" fill="#d67d00" stroke-width="1"></path><path d="M98.42445000000001 105.365475c-0.783 -0.7499250000000001 -2.0263500000000003 -0.724275 -2.77695 0.05805l-0.0675 0.0648c-0.06615 0.0621 -0.1755 0.16065000000000002 -0.32535 0.28350000000000003 -0.30105 0.24637499999999998 -0.7587 0.5865750000000001 -1.35405 0.9288 -1.194075 0.686475 -2.8998 1.358775 -5.0031 1.358775 -1.0854 0 -1.9649250000000003 0.879525 -1.9649250000000003 1.9649250000000003 0 1.0854 0.879525 1.9649250000000003 1.9649250000000003 1.9649250000000003 2.9592 0 5.337225 -0.9477 6.9612750000000005 -1.881225 0.813375 -0.467775 1.44855 -0.9375749999999999 1.88865 -1.298025l0.72495 -0.65475 0.006075 -0.006075 0.0054 -0.0054c0.7505999999999999 -0.783675 0.724275 -2.027025 -0.0594 -2.7783Z" fill="#d67d00" stroke-width="1"></path></g></svg>