<svg viewBox="0 0 216 216" fill="none" xmlns="http://www.w3.org/2000/svg" id="Man-Genie-Flat--Streamline-Fluent-Emoji.svg" height="216" width="216"><desc>Man Genie Flat Streamline Emoji: https://streamlinehq.com</desc><path d="M108 114.75c-13.5 0 -27.572400000000002 5.0976 -27.572400000000002 5.0976 -3.5903250000000004 1.280475 -7.042274999999999 9.55395 -10.329525 11.297475 -2.9361825 1.5572249999999999 -5.7412125000000005 -3.46005 -8.3973375 -1.568025C44.659822500000004 141.715575 33.75 160.415775 33.75 181.412325V202.5h27.674999999999997l12.99375 -6.75 12.65625 6.75h41.85l12.825 -6.75 12.825 6.75H182.25v-21.087675c0 -21.1734 -11.1537 -40.044375 -28.497825 -52.182224999999995 -2.9375999999999998 -2.05605 -6.052725000000001 2.83095 -9.32175 1.1825999999999999 -2.7708749999999998 -1.396575 -5.651775000000001 -9.38925 -8.628525 -10.464525C135.8019 119.94817499999999 121.5 114.75 108 114.75Z" fill="#46a4fb" stroke-width="1"></path><path d="M80.4276 119.84759999999999s2.896425 -1.04895 7.3224 -2.195775V202.5H60.75V130.266225c5.86872 -4.3233749999999995 12.4956 -7.856999999999999 19.6776 -10.418625Z" fill="#f92f60" stroke-width="1"></path><path d="M155.25 202.5h-27V117.674775c4.550175 1.1825999999999999 7.5519 2.2734 7.5519 2.2734 7.090875 2.561625 13.6404 6.073650000000001 19.4481 10.357875V202.5Z" fill="#f92f60" stroke-width="1"></path><path d="M86.0625 81.84375c0 6.0581249999999995 -4.9106250000000005 10.96875 -10.96875 10.96875S64.125 87.901875 64.125 81.84375s4.9106250000000005 -10.96875 10.96875 -10.96875 10.96875 4.9106250000000005 10.96875 10.96875Z" fill="#26c9fc" stroke-width="1"></path><path d="M151.875 81.84375c0 6.0581249999999995 -4.9106250000000005 10.96875 -10.96875 10.96875s-10.96875 -4.9106250000000005 -10.96875 -10.96875 4.9106250000000005 -10.96875 10.96875 -10.96875 10.96875 4.9106250000000005 10.96875 10.96875Z" fill="#26c9fc" stroke-width="1"></path><path d="M87.75 202.5V109.72665c3.313575 -0.73035 6.719625000000001 -1.2615750000000001 10.125 -1.7266500000000002v94.5H87.75Z" fill="#fcd53f" stroke-width="1"></path><path d="M128.25 202.5V109.75500000000001c-3.313575 -0.7425 -6.719625000000001 -1.2825 -10.125 -1.7550000000000001v94.5H128.25Z" fill="#fcd53f" stroke-width="1"></path><path d="M105.010425 33.75c-18.8298 0 -33.673725 13.858020000000002 -32.3676 32.3128575l2.6797500000000003 38.8699425c1.168425 11.62755 10.445625000000001 19.9422 21.78495 19.9422h21.78495c11.339324999999999 0 20.685374999999997 -8.31465 21.78495 -19.9422l2.6797500000000003 -38.8699425C144.6633 47.60802 129.819375 33.75 110.98957500000002 33.75h-5.979150000000001Z" fill="#26c9fc" stroke-width="1"></path><path d="M82.734075 80.730675c1.08 -4.1175 4.7924999999999995 -7.155 9.180000000000001 -7.155 4.590000000000001 0 8.4375 3.3075 9.315 7.6274999999999995 0.20249999999999999 0.9450000000000001 -0.6074999999999999 1.8225000000000002 -1.5525 1.8225000000000002h-15.0525c-1.2149999999999999 0 -2.16 -1.1475000000000002 -1.8900000000000001 -2.2950000000000004Z" fill="#ffffff" stroke-width="1"></path><path d="M133.42657499999999 80.730675c-1.08 -4.1175 -4.7924999999999995 -7.155 -9.180000000000001 -7.155 -4.590000000000001 0 -8.37 3.3075 -9.2475 7.6274999999999995 -0.20249999999999999 0.9450000000000001 0.6074999999999999 1.8225000000000002 1.5525 1.8225000000000002h15.0525c1.2149999999999999 0 2.0925 -1.1475000000000002 1.8225000000000002 -2.2950000000000004Z" fill="#ffffff" stroke-width="1"></path><path d="M87.32339999999999 81.404325c0 -3.3075 2.7 -6.0075 6.0075 -6.0075s6.075 2.7 6.0075 6.0075c0 0.6074999999999999 -0.0675 1.08 -0.20249999999999999 1.6199999999999999h-11.61c-0.135 -0.54 -0.20249999999999999 -1.08 -0.20249999999999999 -1.6199999999999999Z" fill="#7d4533" stroke-width="1"></path><path d="M128.9034 81.404325c0 -3.3075 -2.7 -6.0075 -6.0075 -6.0075 -3.375 0 -6.075 2.7 -6.0075 6.0075 0 0.6074999999999999 0.0675 1.08 0.20249999999999999 1.6199999999999999h11.61c0.135 -0.54 0.20249999999999999 -1.08 0.20249999999999999 -1.6199999999999999Z" fill="#7d4533" stroke-width="1"></path><path d="M93.330225 77.9625c1.8900000000000001 0 3.4425 1.5525 3.4425 3.4425 0 0.6074999999999999 -0.135 1.1475000000000002 -0.40499999999999997 1.6199999999999999h-6.075c-0.27 -0.47250000000000003 -0.40499999999999997 -1.0125 -0.40499999999999997 -1.6199999999999999 0 -1.8900000000000001 1.5525 -3.4425 3.4425 -3.4425Z" fill="#000000" stroke-width="1"></path><path d="M122.89590000000001 77.9625c-1.8900000000000001 0 -3.4425 1.5525 -3.4425 3.4425 0 0.6074999999999999 0.135 1.1475000000000002 0.40499999999999997 1.6199999999999999h6.075c0.27 -0.47250000000000003 0.40499999999999997 -1.0125 0.40499999999999997 -1.6199999999999999 0 -1.8900000000000001 -1.5525 -3.4425 -3.4425 -3.4425Z" fill="#000000" stroke-width="1"></path><path d="M92.317725 79.0425c0 0.5967 -0.48329999999999995 1.08 -1.08 1.08s-1.08 -0.48329999999999995 -1.08 -1.08c0 -0.596025 0.48329999999999995 -1.08 1.08 -1.08s1.08 0.483975 1.08 1.08Z" fill="#ffffff" stroke-width="1"></path><path d="M122.0859 79.0425c0 0.5967 -0.48329999999999995 1.08 -1.08 1.08 -0.596025 0 -1.08 -0.48329999999999995 -1.08 -1.08 0 -0.596025 0.483975 -1.08 1.08 -1.08 0.5967 0 1.08 0.483975 1.08 1.08Z" fill="#ffffff" stroke-width="1"></path><path d="M97.84124999999999 101.39445c-0.9801 -0.54 -2.1006 0.6074999999999999 -1.470825 1.485 2.4516 3.6450000000000005 6.723675 6.075 11.626199999999999 6.075s9.1746 -2.4299999999999997 11.625525 -6.075c0.63045 -0.9450000000000001 -0.41985 -2.025 -1.470825 -1.485 -2.940975 1.485 -17.368425000000002 1.485 -20.310075 0Z" fill="#990839" stroke-width="1"></path><path d="M111.13605000000001 39.69c4.24845 0 8.208675 0.7425 11.880675 2.2275 3.5282250000000004 1.4175 6.62445 3.375 9.144225 5.94 2.3044499999999997 2.2950000000000004 4.03245 4.995 5.11245 7.897499999999999 1.15155 3.105 1.655775 6.4125 1.36755 9.855l-2.735775 38.745000000000005c-0.432 4.1175 -2.376 7.829999999999999 -5.4 10.4625 -3.024 2.565 -6.9842249999999995 4.05 -11.160449999999999 4.05h-22.7529c-4.1762250000000005 0 -8.13645 -1.4175 -11.160449999999999 -4.05 -3.024 -2.6325000000000003 -4.968 -6.345 -5.4 -10.4625l-2.808 -38.745000000000005c-0.288225 -3.4425 0.216 -6.75 1.36755 -9.855 1.1522249999999998 -2.97 2.8802250000000003 -5.6025 5.11245 -7.897499999999999 2.519775 -2.565 5.616 -4.5225 9.144225 -5.94 3.672 -1.485 7.70445 -2.2275 11.880675 -2.2275h6.407775Zm0 -5.94h-6.264c-19.7289 0 -35.281575 13.837499999999999 -33.91335 32.265l2.808 38.8125c1.22445 11.61 10.94445 19.9125 22.825125 19.9125h22.824450000000002c11.880675 0 21.6729 -8.3025 22.825125 -19.9125l2.808 -38.8125C146.3454 47.5875 130.792725 33.75 111.13605000000001 33.75Z" fill="#321b41" stroke-width="1"></path><path d="M133.0155 69.3711c1.2291750000000001 -1.5903 0.933525 -3.8782125 -0.656775 -5.1072525l-0.0081 -0.006075 -0.011474999999999999 -0.0091125 -0.0297 -0.0220725 -0.0783 -0.058387499999999995c-0.0621 -0.0450225 -0.14175000000000001 -0.1019925 -0.23895 -0.1689525 -0.195075 -0.13378500000000002 -0.461025 -0.30807 -0.794475 -0.5064525 -0.664875 -0.3957525 -1.60785 -0.8937675 -2.79045 -1.3565475 -2.3638500000000002 -0.9250875000000001 -5.7456 -1.7302275 -9.784125 -1.2357225 -1.9952999999999999 0.2442825 -3.4141500000000002 2.0597624999999997 -3.1698 4.054995 0.243675 1.995165 2.059425 3.414555 4.054725 3.170205 2.576475 -0.315225 4.729725 0.19575 6.247125 0.789075 0.758025 0.297 1.3425749999999999 0.60885 1.7199000000000002 0.83295 0.18764999999999998 0.11205 0.320625 0.20047500000000001 0.39555 0.25177499999999997l0.065475 0.045899999999999996c1.5896249999999998 1.2062249999999999 3.8569500000000003 0.9071999999999999 5.079375 -0.6743250000000001Z" fill="#321b41" stroke-width="1"></path><path d="M82.414125 64.26567c-1.5903 1.22904 -1.88325 3.51513 -0.654075 5.10543 1.222425 1.581525 3.48975 1.8805500000000002 5.0786999999999995 0.6743250000000001l0.06615 -0.045899999999999996c0.074925 -0.0513 0.2079 -0.139725 0.39555 -0.25177499999999997 0.37732499999999997 -0.2241 0.9618749999999999 -0.53595 1.7199000000000002 -0.83295 1.5174 -0.593325 3.6706499999999997 -1.1043 6.247125 -0.789075 1.9952999999999999 0.24435 3.810375 -1.17504 4.054725 -3.170205 0.24435 -1.9952325000000002 -1.175175 -3.8107125 -3.1698 -4.054995 -4.038525 -0.49450500000000003 -7.420274999999999 0.310635 -9.7848 1.2357225 -1.1825999999999999 0.46277999999999997 -2.1249000000000002 0.960795 -2.789775 1.3565475 -0.33345 0.1983825 -0.5994 0.37266750000000004 -0.794475 0.5064525 -0.0972 0.06696 -0.17752500000000002 0.12393000000000001 -0.23895 0.1689525l-0.078975 0.058387499999999995 -0.029025 0.0220725 -0.01215 0.0091125 -0.010125 0.0078975Z" fill="#321b41" stroke-width="1"></path><path d="M66.0439575 45.895477500000005C64.24258499999999 34.181325 73.18282500000001 23.625 84.925125 23.625h46.101825000000005c11.7423 0 20.682675 10.556325000000001 18.8811 22.2704775l-2.7351 17.70741c-0.400275 2.86038 -2.5353 5.0398875 -5.2704 5.5846125l0.06615 -1.1576250000000001v-2.04336c-0.06615 -1.0896525 -0.13297499999999998 -2.111265 -0.33345 -3.1328099999999997 -1.067175 -4.290637500000001 -4.93695 -7.423515 -9.54045 -7.423515h-48.303675000000005c-4.536675 0 -8.40645 3.1328774999999998 -9.541125 7.423515 -0.13297499999999998 1.021545 -0.266625 2.0431575 -0.266625 3.1328099999999997v2.04336l0.06682500000000001 1.1576250000000001c-0.33345 -0.068175 -0.6588 -0.162 -0.9733499999999999 -0.278775 -2.2032000000000003 -0.8214750000000001 -3.8886749999999997 -2.803005 -4.297725000000001 -5.3058375l-2.7351675 -17.70741Z" fill="#f92f60" stroke-width="1"></path><path d="M118.418625 26.621055c-0.80055 -0.3405375 -1.6679249999999999 0 -2.135025 0.681075l-0.0216 0.0303075c-0.359775 0.51111 -5.0577749999999995 7.188547499999999 -18.792675 5.2138349999999996 -1.8009 -0.27243 -3.6031500000000003 -0.5449275 -5.337225 -0.81729l-0.254475 -0.0425925c-7.65855 -1.28088 -15.497325 -2.591865 -22.096125 -0.6384825 -1.200825 1.5664725 -2.135025 3.3372 -2.8022625000000003 5.2441425 6.2400375 -4.065862500000001 14.857762500000002 -2.6703 24.4731375 -1.1132775l0.1458 0.023557500000000002c0.7722 0.1212975 1.570725 0.25596 2.3773500000000003 0.392175 1.0070999999999999 0.1698975 2.027025 0.3420225 3.0267 0.49322249999999995 8.2728 1.2258674999999999 13.743674999999998 -0.408645 17.28 -2.383695 -3.2022 7.082977500000001 -9.674100000000001 11.033077500000001 -25.419825 11.033077500000001 -6.07095 0 -14.544225 1.1577600000000001 -20.415375 6.74244l-1.3343399999999999 1.3620825 0.800415 5.03982c1.53495 -3.06477 6.538725 -9.6028875 20.9493 -9.6028875 10.208025 0 17.213849999999997 -1.5664049999999998 22.083975 -5.0397525000000005 4.4030249999999995 -3.06477 7.071975 -7.55973 8.60625 -14.506492499999998 0.06682500000000001 -0.9534374999999999 -0.33345 -1.7707275 -1.1340000000000001 -2.111265Z" fill="#ca0b4a" stroke-width="1"></path><path d="M148.573575 54.885059999999996c-5.40405 -6.5381175 -13.47705 -10.42011 -22.150125 -10.42011 -0.9341999999999999 0 -1.73475 0.81729 -1.73475 1.7707275 0 0.9535049999999999 0.80055 1.7707950000000001 1.73475 1.7707950000000001 8.7399 0 16.746075 4.5630675 21.4164 11.8503l0.7337250000000001 -4.971712500000001Z" fill="#ca0b4a" stroke-width="1"></path><path d="M129.159225 34.862399999999994c-0.9341999999999999 0 -1.73475 -0.81729 -1.73475 -1.7707275 0 -1.0216125 0.7337250000000001 -1.7707275 1.8015750000000001 -1.7707275 7.405425 0 14.677875 2.58795 20.482200000000002 7.219124999999999 0.33345 1.7026875 0.533925 3.4053075 0.46709999999999996 5.176035 -5.5377 -5.6527199999999995 -13.143600000000001 -8.853705 -21.016125000000002 -8.853705Z" fill="#ca0b4a" stroke-width="1"></path><path d="M108 50.625c5.5917 0 10.125 -4.5330975 10.125 -10.125s-4.5333 -10.125 -10.125 -10.125 -10.125 4.5330975 -10.125 10.125 4.5333 10.125 10.125 10.125Z" fill="#fcd53f" stroke-width="1"></path><path d="M108 45.5625c2.79585 0 5.0625 -2.2665824999999997 5.0625 -5.0625s-2.26665 -5.0625 -5.0625 -5.0625 -5.0625 2.2665824999999997 -5.0625 5.0625 2.26665 5.0625 5.0625 5.0625Z" fill="#f8312f" stroke-width="1"></path><path d="m105.176475 81.01350000000001 -3.7395000000000005 11.7531c-0.8066249999999999 2.392875 1.10025 4.85595 3.7395000000000005 4.85595h5.64705c2.63925 0 4.546125 -2.463075 3.7395000000000005 -4.85595l-3.8130749999999995 -11.7531c-0.8801999999999999 -2.6041499999999997 -4.693275 -2.6041499999999997 -5.573475 0Z" fill="#00a6ed" stroke-width="1"></path><path fill-rule="evenodd" clip-rule="evenodd" d="M114.1641 94.5c-0.280125 1.6199999999999999 -1.68075 2.97 -3.5721 2.97h-5.184c-1.89135 0 -3.2919750000000003 -1.35 -3.5721 -2.97h-6.584625c-3.221775 0 -5.813775 2.4975 -5.813775 5.6025v22.4775h7.004475V121.5H104.625v0.3375h6.75V121.5h8.183024999999999v1.08H126.5625v-22.4775c0 -3.105 -2.592 -5.6025 -5.813775 -5.6025h-6.584625Zm2.018925 23.625c1.8636750000000002 0 3.375 -1.5113249999999998 3.375 -3.375v-9.045c0 -0.932175 -0.756 -1.6875 -1.6875 -1.6875h-19.741049999999998c-0.9315000000000001 0 -1.6875 0.755325 -1.6875 1.6875V114.75c0 1.8636750000000002 1.5113249999999998 3.375 3.375 3.375H101.25c1.8636750000000002 0 3.375 -1.5113249999999998 3.375 -3.375 0 -1.8900000000000001 1.485 -3.375 3.375 -3.375s3.375 1.485 3.375 3.375c0 1.8636750000000002 1.5113249999999998 3.375 3.375 3.375h1.433025Z" fill="#321b41" stroke-width="1"></path></svg>