<svg viewBox="0 0 216 216" fill="none" xmlns="http://www.w3.org/2000/svg" id="Man-Detective-Flat-Default--Streamline-Fluent-Emoji.svg" height="216" width="216"><desc>Man Detective Flat Default Streamline Emoji: https://streamlinehq.com</desc><path d="M77.625 86.715225c0 6.523875 -5.288625 11.8125 -11.8125 11.8125S54 93.23910000000001 54 86.715225s5.288625 -11.8125 11.8125 -11.8125 11.8125 5.288625 11.8125 11.8125Z" fill="#fdbb11" stroke-width="1"></path><path d="M148.5 86.715225c0 6.523875 -5.288625 11.8125 -11.8125 11.8125s-11.8125 -5.288625 -11.8125 -11.8125 5.288625 -11.8125 11.8125 -11.8125 11.8125 5.288625 11.8125 11.8125Z" fill="#fdbb11" stroke-width="1"></path><path d="m155.249325 202.43249999999998 12.905999999999999 -24.7995L155.249325 148.5c-14.28165 -13.17465 -33.392925 -20.25 -53.86365 -20.25 -20.607075000000002 0 -39.785917500000004 6.9403500000000005 -54.13601249999999 20.25l-10.24164 29.133L47.2496625 202.5H155.249325v-0.0675Z" fill="#433b6b" stroke-width="1"></path><path d="M47.25 148.5v54H20.25c1.057455 -6.4665 2.537865 -12.794625 4.5822375 -19.054575l0.21147749999999998 -0.61965C29.414475000000003 169.412175 37.1690775 157.64894999999999 47.25 148.5Z" fill="#635994" stroke-width="1"></path><path d="M177.761925 183.24360000000001c1.9635749999999998 6.3045 3.50595 12.746025000000001 4.488075 19.2564h-27v-54c10.239075 9.25155 18.163575 21.106575 22.511925 34.7436Z" fill="#635994" stroke-width="1"></path><path d="M101.29050000000001 128.25c-9.3636 0 -18.403875 1.1495250000000001 -27.0405 3.313575L90.27045 202.5h22.247999999999998L128.25 131.496075C119.613375 129.399525 110.5731 128.25 101.29050000000001 128.25Z" fill="#f4f4f4" stroke-width="1"></path><path d="M97.580025 163.76985 89.4375 147.05955h23.625l-8.142525 16.7103L111.375 202.5h-20.25l6.455025 -38.73015Z" fill="#f92f60" stroke-width="1"></path><path d="M86.0625 159.6105 101.25 148.22729999999999l15.1875 11.383199999999999c2.0088 1.50795 4.982175 0.45225000000000004 5.464125 -1.8846L128.25 128.25h-54l6.348375 29.475899999999996c0.48195000000000005 2.33685 3.455325 3.3925500000000004 5.464125 1.8846Z" fill="#e6e6e6" stroke-width="1"></path><path d="M101.25 146.8125s-13.5 -6.1877249999999995 -13.5 -15.1875v-11.8125h27v11.8125c0 8.999775 -13.5 15.1875 -13.5 15.1875Z" fill="#fcb100" stroke-width="1"></path><path d="M72.9297 114.75 91.125 202.4352V202.5h-9.1638l-34.464352500000004 -57.17722500000001c-1.1289375000000001 -1.9514250000000002 -0.4648725 -4.423275 1.5273225 -5.528925l3.65229 -2.0169c1.593675 -0.9105749999999999 1.8592874999999998 -3.057075 0.464805 -4.228199999999999l-14.874772499999999 -12.944475C35.9423325 118.522575 37.403235 114.75 40.5243 114.75h32.4054Z" fill="#8d65c5" stroke-width="1"></path><path d="M129.59257499999998 114.75 111.375 202.4352V202.5h9.10845l34.506675 -57.17722500000001c1.130625 -1.9514250000000002 0.46575000000000005 -4.423275 -1.528875 -5.528925l-3.6571499999999997 -2.0169c-1.5950250000000001 -0.9105749999999999 -1.86165 -3.057075 -0.465075 -4.228199999999999l14.8932 -12.944475c2.326725 -2.0817 0.864 -5.8542749999999995 -2.260575 -5.8542749999999995h-32.379075Z" fill="#8d65c5" stroke-width="1"></path><path d="M185.625 148.5c3.72195 0 6.75 2.761425 6.75 6.155325V168.75h-13.5v-14.094674999999999c0 -3.3939000000000004 3.02805 -6.155325 6.75 -6.155325Z" fill="#f59f00" stroke-width="1"></path><path d="M173.8125 135c11.184075 0 20.25 -9.065925 20.25 -20.25s-9.065925 -20.25 -20.25 -20.25 -20.25 9.065925 -20.25 20.25 9.065925 20.25 20.25 20.25Z" fill="#00d1ed" stroke-width="1"></path><path d="M167.81107500000002 137.599425C157.6935 134.9298 150.1875 125.681625 150.1875 114.75c0 -13.003875 10.621125 -23.625 23.625 -23.625s23.625 10.621125 23.625 23.625c0 10.931625 -7.506 20.1798 -17.623575 22.849425 1.504575 1.5740999999999998 2.4360749999999998 3.7334250000000004 2.4360749999999998 6.108075v21.6c0 4.7924999999999995 -3.7935000000000003 8.7075 -8.4375 8.7075s-8.4375 -3.9149999999999996 -8.4375 -8.7075v-21.6c0 -2.37465 0.9315000000000001 -4.533975 2.4360749999999998 -6.108075ZM155.22570000000002 114.75c0 10.280925 8.305875 18.5868 18.5868 18.5868 10.280925 0 18.5868 -8.305875 18.5868 -18.5868 0 -10.280925 -8.374049999999999 -18.5868 -18.5868 -18.5868 -10.21275 0 -18.5868 8.305875 -18.5868 18.5868Z" fill="#321b41" stroke-width="1"></path><path d="M179.71875 116.4375c3.2622750000000003 0 5.90625 -2.64465 5.90625 -5.90625s-2.6439749999999997 -5.90625 -5.90625 -5.90625c-3.2616 0 -5.90625 2.64465 -5.90625 5.90625s2.64465 5.90625 5.90625 5.90625Z" fill="#f4f4f4" stroke-width="1"></path><path d="M161.07795 162.14445c-3.0881250000000002 0 -5.684175 2.449575 -5.824575 5.5485 -0.0702 2.0898 0.9821249999999999 3.9636000000000005 2.5258499999999997 4.9727250000000005 -1.543725 1.00845 -2.5258499999999997 2.810025 -2.5258499999999997 4.8282750000000005 0 2.017575 0.9821249999999999 3.746925 2.5258499999999997 4.8282750000000005 -1.543725 1.00845 -2.5258499999999997 2.810025 -2.5258499999999997 4.8282750000000005 0 2.017575 0.9821249999999999 3.746925 2.5258499999999997 4.8282750000000005 -1.543725 1.080675 -2.59605 2.88225 -2.5258499999999997 4.97205 0.0702 3.17115 2.73645 5.549175 5.824575 5.549175h24.77115c3.57885 0 6.5259 -2.954475 6.5259 -6.702075v-27.09585c0 -3.675375 -2.87685 -6.702075 -6.5259 -6.702075h-24.77115v0.14445Z" fill="#ffc83d" stroke-width="1"></path><path d="M98.91720000000001 27c-21.527775 0 -38.494912500000005 18.592402500000002 -36.952470000000005 40.465845l3.017925 43.883505C66.3239475 125.15714999999999 76.9203 135 89.930925 135h24.881175000000002c12.943125 0 23.606775 -9.84285 24.948 -23.65065l3.017925 -43.883505C144.25357499999998 45.5924025 127.28609999999999 27 105.82515 27h-6.9079500000000005Z" fill="#ffc83d" stroke-width="1"></path><path d="m57.9827025 77.18625 -2.9025 -15.727635000000001h12.217500000000001c-0.40499999999999997 0.54 -0.8775000000000001 1.0125 -1.35 1.485l-1.4175 1.2825c-1.6875 1.5525 -2.565 3.7126349999999997 -2.3625 5.940135 0.27 4.3875 0.7425 11.205 0.7425 11.205 -2.4299999999999997 -0.0675 -4.455 -1.8225000000000002 -4.9275 -4.185Z" fill="#f1a11e" stroke-width="1"></path><path d="M139.253175 62.943615c-0.54 -0.47250000000000003 -0.9450000000000001 -0.9450000000000001 -1.35 -1.485h12.285l-2.9025 15.727635000000001c-0.40499999999999997 2.3625 -2.4299999999999997 4.05 -4.7924999999999995 4.185 0 0 0.47250000000000003 -6.75 0.7425 -11.1375 0.135 -2.2275 -0.7425 -4.455135 -2.4299999999999997 -5.940135l-1.5525 -1.35Z" fill="#f1a11e" stroke-width="1"></path><path d="M74.315475 84.75637499999999c1.08 -4.5225 5.13 -7.829999999999999 9.99 -7.829999999999999 5.0625 0 9.2475 3.5775 10.125 8.3025 0.20249999999999999 1.08 -0.6074999999999999 2.025 -1.6875 2.025h-16.47c-1.2825 0 -2.2950000000000004 -1.2149999999999999 -1.9574999999999998 -2.4975Z" fill="#ffffff" stroke-width="1"></path><path d="M129.66547500000001 84.75637499999999c-1.08 -4.5225 -5.13 -7.829999999999999 -9.99 -7.829999999999999 -4.995 0 -9.180000000000001 3.5775 -10.125 8.3025 -0.20249999999999999 1.08 0.6074999999999999 2.025 1.6875 2.025h16.47c1.2825 0 2.2950000000000004 -1.2149999999999999 1.9574999999999998 -2.4975Z" fill="#ffffff" stroke-width="1"></path><path d="M79.242975 85.498875c0 -3.6450000000000005 2.97 -6.615 6.615 -6.615s6.615 2.97 6.6825 6.615c0 0.6074999999999999 -0.135 1.2149999999999999 -0.27 1.7550000000000001h-12.757499999999999c-0.20249999999999999 -0.54 -0.27 -1.1475000000000002 -0.27 -1.7550000000000001Z" fill="#7d4533" stroke-width="1"></path><path d="M124.805475 85.498875c0 -3.6450000000000005 -2.97 -6.615 -6.615 -6.615s-6.615 2.97 -6.6825 6.615c0 0.6074999999999999 0.135 1.2149999999999999 0.27 1.7550000000000001h12.757499999999999c0.20249999999999999 -0.54 0.27 -1.1475000000000002 0.27 -1.7550000000000001Z" fill="#7d4533" stroke-width="1"></path><path d="M85.857975 81.71820000000001c2.0925 0 3.7800000000000002 1.6875 3.7800000000000002 3.7800000000000002 0 0.6074999999999999 -0.20249999999999999 1.2149999999999999 -0.47250000000000003 1.7550000000000001h-6.6825c-0.27 -0.54 -0.40499999999999997 -1.1475000000000002 -0.40499999999999997 -1.7550000000000001 0 -2.0925 1.6875 -3.7800000000000002 3.7800000000000002 -3.7800000000000002Z" fill="#000000" stroke-width="1"></path><path d="M118.19047499999999 81.71820000000001c-2.0925 0 -3.7800000000000002 1.6875 -3.7800000000000002 3.7800000000000002 0 0.6074999999999999 0.135 1.2149999999999999 0.47250000000000003 1.7550000000000001h6.6825c0.27 -0.54 0.40499999999999997 -1.1475000000000002 0.40499999999999997 -1.7550000000000001 0 -2.0925 -1.6875 -3.7800000000000002 -3.7800000000000002 -3.7800000000000002Z" fill="#000000" stroke-width="1"></path><path d="M84.710475 82.8657c0 0.633825 -0.513675 1.1475000000000002 -1.1475000000000002 1.1475000000000002 -0.633825 0 -1.1475000000000002 -0.513675 -1.1475000000000002 -1.1475000000000002 0 -0.63315 0.513675 -1.1475000000000002 1.1475000000000002 -1.1475000000000002 0.633825 0 1.1475000000000002 0.51435 1.1475000000000002 1.1475000000000002Z" fill="#ffffff" stroke-width="1"></path><path d="M117.24547500000001 82.8657c0 0.633825 -0.513675 1.1475000000000002 -1.1475000000000002 1.1475000000000002 -0.633825 0 -1.1475000000000002 -0.513675 -1.1475000000000002 -1.1475000000000002 0 -0.63315 0.513675 -1.1475000000000002 1.1475000000000002 -1.1475000000000002 0.633825 0 1.1475000000000002 0.51435 1.1475000000000002 1.1475000000000002Z" fill="#ffffff" stroke-width="1"></path><path d="m98.5122 85.034475 -3.823875 12.789225c-0.8052750000000001 2.6561250000000003 1.07325 5.311575 3.75705 5.311575h5.635575c2.616975 0 4.4955 -2.65545 3.75705 -5.311575l-3.823875 -12.789225c-0.8052750000000001 -2.865375 -4.629824999999999 -2.865375 -5.501925 0Z" fill="#ed9200" stroke-width="1"></path><path d="M101.30940000000001 110.71889999999999c-4.2606 0 -8.300475 -0.941625 -11.67885 -2.5569 -1.175175 -0.537975 -2.35035 0.672975 -1.6895250000000002 1.615275 2.791125 3.969 7.71255 6.6602250000000005 13.2948 6.6602250000000005s10.503675 -2.623725 13.2948 -6.6602250000000005c0.7343999999999999 -1.009125 -0.51435 -2.2207500000000002 -1.6895250000000002 -1.615275 -3.2319 1.615275 -7.271775 2.5569 -11.531699999999999 2.5569Z" fill="#990839" stroke-width="1"></path><path d="m138.424275 25.2882675 4.8438 13.81887 0.59265 1.697895 -5.43645 7.4523375L148.46355 54 162.81 54c5.2137 0 7.924499999999999 6.192045 4.24035 9.8664075C157.665825 73.39274999999999 144.458775 79.3125 129.86122500000002 79.3125h-57.20827500000001c-14.59728 0 -27.804532499999997 -5.91975 -37.1886525 -15.4460925C31.780147499999998 60.19204499999999 34.421625 54 39.7045125 54l14.25924 0 9.9695475 -6.59745 -5.3664525 -6.5975175 0.5923125 -1.697895 4.77414 -13.81887c4.3530750000000005 -11.026395 17.481825 -15.179197499999999 27.170775 -8.735175 6.108075 4.0811850000000005 14.04135 4.0811850000000005 20.149425 0 9.75915 -6.4440225 22.8177 -2.2196025 27.170775 8.735175Z" fill="#433b6b" stroke-width="1"></path><path d="M92.19285 54H148.5l-4.725 -13.5H58.724999999999994L54 54h38.19285Z" fill="#321b41" stroke-width="1"></path></svg>