<svg viewBox="0 0 216 216" fill="none" xmlns="http://www.w3.org/2000/svg" id="Man-Judge-Flat-Default--Streamline-Fluent-Emoji.svg" height="216" width="216"><desc>Man Judge Flat Default Streamline Emoji: https://streamlinehq.com</desc><path d="m155.25 202.5 13.5 -40.5 -13.5 -37.125H60.75L47.25 162l13.5 40.5h94.5Z" fill="#212121" stroke-width="1"></path><path d="M155.25 202.5V125.506125c-9.245474999999999 16.6077 -26.87985 27.853875000000002 -47.25 27.853875000000002 -20.362725 0 -38.053125 -11.238075 -47.2496625 -27.836325V202.5h-27v-23.625c-0.0675 -23.017500000000002 10.5975 -43.6725 27 -57.375v0.0864C73.5831 111.024675 90.038925 104.625 108 104.625c17.96175 0 34.417575 6.3369 47.25 16.95465V121.5c16.5375 13.635 27 34.3575 27 57.375V202.5h-27Z" fill="#000000" stroke-width="1"></path><path d="M84.375 202.43249999999998v-35.4375c0 -1.8900000000000001 -1.485 -3.375 -3.375 -3.375s-3.375 1.485 -3.375 3.375v35.4375h6.75Z" fill="#000000" stroke-width="1"></path><path d="M111.375 202.43249999999998v-35.4375c0 -1.8900000000000001 -1.485 -3.375 -3.375 -3.375s-3.375 1.485 -3.375 3.375v35.4375h6.75Z" fill="#000000" stroke-width="1"></path><path d="M138.375 202.43249999999998v-35.4375c0 -1.8900000000000001 -1.485 -3.375 -3.375 -3.375s-3.375 1.485 -3.375 3.375v35.4375h6.75Z" fill="#000000" stroke-width="1"></path><path d="m114.21067500000001 132.9075 -4.3875 3.9149999999999996c-1.08 0.9450000000000001 -2.6325000000000003 0.9450000000000001 -3.7125000000000004 0l-4.3875 -3.9149999999999996c-4.859999999999999 -4.3875 -7.694999999999999 -10.665000000000001 -7.694999999999999 -17.2125v-20.857499999999998c0.0675 -7.6274999999999995 6.277500000000001 -13.837499999999999 13.972499999999998 -13.837499999999999 7.694999999999999 0 13.905000000000001 6.21 13.905000000000001 13.905000000000001v20.857499999999998c-0.0675 6.547499999999999 -2.835 12.757499999999999 -7.694999999999999 17.145Z" fill="#9b9b9b" stroke-width="1"></path><path d="M121.836825 102.6675h-27.742500000000003v13.094999999999999c0 6.547499999999999 2.7674999999999996 12.825 7.694999999999999 17.2125 0.47250000000000003 0.40499999999999997 1.2149999999999999 0.3375 1.6199999999999999 -0.20249999999999999l3.9149999999999996 -5.67c0.3375 -0.54 1.1475000000000002 -0.54 1.485 0l3.9149999999999996 5.67c0.3375 0.54 1.08 0.6074999999999999 1.6199999999999999 0.20249999999999999 4.859999999999999 -4.3875 7.694999999999999 -10.665000000000001 7.694999999999999 -17.2125v-13.094999999999999h-0.20249999999999999Z" fill="#e6e6e6" stroke-width="1"></path><path d="M182.21355 155.25c3.76245 0 6.78645 2.749275 6.78645 6.168825V175.5h-13.49865v-14.081175c-0.073575 -3.4195500000000005 2.950425 -6.168825 6.712199999999999 -6.168825Z" fill="#f59f00" stroke-width="1"></path><path d="M152.685 141.68249999999998c-3.105 0 -5.67 -2.4975 -5.67 -5.67v-15.727500000000001c0 -3.105 2.4975 -5.67 5.67 -5.67 3.105 0 5.67 2.4975 5.67 5.67V121.5l0.000675 -3.375c0 -1.8900000000000001 1.5525 -3.375 3.375 -3.375h19.439999999999998c1.8225000000000002 0 3.3075 1.485 3.375 3.375v1.281825c0.4185 -2.69595 2.734425 -4.791825 5.6025 -4.791825 3.105 0 5.67 2.4975 5.67 5.67v15.727500000000001c-0.0675 3.1725 -2.565 5.67 -5.67 5.67 -2.8106999999999998 0 -5.1786 -2.045925 -5.6025 -4.787100000000001V138.375c0 1.8900000000000001 -1.5525 3.375 -3.375 3.375H177.66c1.5558750000000001 0.31725 2.6919 1.7084249999999999 2.633175 3.3075 0 1.8900000000000001 -1.485 3.375 -3.375 3.375h-0.47250000000000003v36.315h-10.125v-36.315h-0.47250000000000003c-1.8900000000000001 0 -3.375 -1.485 -3.375 -3.375 0 -1.65375 1.1367 -2.997 2.6865 -3.3075h-3.4290000000000003c-1.8900000000000001 0 -3.375 -1.5525 -3.375 -3.375V135l-0.000675 1.0125c0 3.1725 -2.565 5.67 -5.67 5.67Z" fill="#7d4533" stroke-width="1"></path><path d="M163.36214999999999 165.445875c-2.52045 0 -4.672350000000001 2.2626 -4.7337750000000005 5.161725000000001 -0.0621 1.9095749999999998 0.7992 3.606525 2.0898 4.59675 -1.2291750000000001 0.9193499999999999 -2.0898 2.545425 -2.0898 4.384125s0.7992 3.464775 2.0898 4.384125c-1.2291750000000001 0.9193499999999999 -2.0898 2.5461 -2.0898 4.384799999999999 0 1.838025 0.7992 3.464775 2.0898 4.384125 -1.2906 0.990225 -2.0898 2.687175 -2.0898 4.596075 0.061425 2.8998 2.213325 5.1624 4.7337750000000005 5.1624h20.28915c2.9511 0 5.3487 -2.7580500000000003 5.3487 -6.15195v-24.8211c0 -3.3939000000000004 -2.3976 -6.15195 -5.3487 -6.15195h-20.28915v0.07087500000000001Z" fill="#ffc83d" stroke-width="1"></path><path d="M108 124.875c-7.4709 0 -13.5 -6.517125 -13.5 -14.592825000000001v-18.135225000000002c0 -8.004825 6.0291 -14.521950000000002 13.5 -14.521950000000002s13.5 6.517125 13.5 14.592825000000001v18.135225000000002c-0.065475 8.004825 -6.094575 14.521950000000002 -13.5 14.521950000000002Z" fill="#fcb100" stroke-width="1"></path><path d="M86.13 71.8875c0 6.07635 -4.92615 11.0025 -11.0025 11.0025 -6.07635 0 -11.0025 -4.92615 -11.0025 -11.0025 0 -6.07635 4.92615 -11.002365 11.0025 -11.002365 6.07635 0 11.0025 4.926015 11.0025 11.002365Z" fill="#fdbb11" stroke-width="1"></path><path d="M150.5925 71.8875c0 6.07635 -4.9254750000000005 11.0025 -11.0025 11.0025 -6.07635 0 -11.0025 -4.92615 -11.0025 -11.0025 0 -6.07635 4.92615 -11.002365 11.0025 -11.002365 6.077025 0 11.0025 4.926015 11.0025 11.002365Z" fill="#fdbb11" stroke-width="1"></path><path d="M104.355 22.74831c-18.6975 0 -33.4125 15.8625 -32.129999999999995 34.4925l2.6325000000000003 37.462365c1.1475000000000002 11.745 10.395 20.115 21.6675 20.115h21.6c11.272499999999999 0 20.52 -8.37 21.6675 -20.115l2.6325000000000003 -37.462365c1.2825 -18.63 -13.4325 -34.4925 -32.129999999999995 -34.4925h-5.94Z" fill="#ffc83d" stroke-width="1"></path><path d="M128.181825 59.3997975c0.675 0.47250000000000003 1.485 0.7425 2.2275 0.7425 1.08 0 2.16 -0.47250000000000003 2.9025 -1.4175 1.2149999999999999 -1.6199999999999999 0.9450000000000001 -3.9825 -0.675 -5.1975 -0.20249999999999999 -0.20249999999999999 -5.7375 -4.3875 -13.837499999999999 -3.4425 -2.025 0.27 -3.5100000000000002 2.0925 -3.2399999999999998 4.1175 0.27 2.025 2.0925 3.5100000000000002 4.1175 3.2399999999999998 4.783725 -0.5897475 8.104049999999999 1.6830450000000001 8.47935 1.9398825 0.011474999999999999 0.0077625 0.02565 0.017617499999999998 0.02565 0.017617499999999998Z" fill="#d37034" stroke-width="1"></path><path d="M81.405 58.657365c0.7425 1.0125 1.8225000000000002 1.485 2.97 1.485 0.7425 0 1.485 -0.20249999999999999 2.16 -0.7425 0 0 0.03375 -0.020655 0.0729 -0.046305 0.5318999999999999 -0.3487725 3.7793249999999996 -2.477115 8.4321 -1.911195 2.025 0.27 3.8474999999999997 -1.2149999999999999 4.1175 -3.1725 0.20249999999999999 -2.025 -1.2149999999999999 -3.8474999999999997 -3.2399999999999998 -4.1175 -8.032499999999999 -0.9450000000000001 -13.635 3.2399999999999998 -13.837499999999999 3.4425 -1.6199999999999999 1.2149999999999999 -1.8900000000000001 3.5100000000000002 -0.675 5.0625Z" fill="#d37034" stroke-width="1"></path><path d="M82.1475 69.795c1.0125 -4.04973 4.725 -7.08723 9.1125 -7.08723 4.590000000000001 0 8.37 3.3075 9.2475 7.55973 0.135 0.9450000000000001 -0.6074999999999999 1.8225000000000002 -1.5525 1.8225000000000002h-14.985000000000001c-1.1475000000000002 0 -2.0925 -1.08 -1.8225000000000002 -2.2950000000000004Z" fill="#ffffff" stroke-width="1"></path><path d="M132.57 69.795c-1.0125 -4.04973 -4.725 -7.08723 -9.1125 -7.08723 -4.590000000000001 0 -8.37 3.3075 -9.2475 7.55973 -0.135 0.9450000000000001 0.6074999999999999 1.8225000000000002 1.5525 1.8225000000000002h14.985000000000001c1.2149999999999999 0 2.0925 -1.1475000000000002 1.8225000000000002 -2.2950000000000004Z" fill="#ffffff" stroke-width="1"></path><path d="M86.67 70.53817500000001c0 -3.3077699999999997 2.7 -6.007770000000001 6.0075 -6.007770000000001s6.0075 2.7 5.94 6.007770000000001c0 0.6074999999999999 -0.0675 1.08 -0.20249999999999999 1.6199999999999999h-11.5425c-0.135 -0.54 -0.20249999999999999 -1.08 -0.20249999999999999 -1.6199999999999999Z" fill="#7d4533" stroke-width="1"></path><path d="M128.04749999999999 70.53817500000001c0 -3.3077699999999997 -2.7 -6.007770000000001 -6.0075 -6.007770000000001s-6.0075 2.7 -5.94 6.007770000000001c0 0.6074999999999999 0.0675 1.08 0.20249999999999999 1.6199999999999999h11.5425c0.135 -0.54 0.20249999999999999 -1.08 0.20249999999999999 -1.6199999999999999Z" fill="#7d4533" stroke-width="1"></path><path d="M92.67750000000001 67.094595c1.8900000000000001 0 3.4425 1.55223 3.4425 3.44223 0 0.54 -0.135 1.08 -0.40499999999999997 1.6199999999999999h-6.075c-0.27 -0.47250000000000003 -0.40499999999999997 -1.0125 -0.40499999999999997 -1.6199999999999999 0 -1.8900000000000001 1.5525 -3.44223 3.4425 -3.44223Z" fill="#000000" stroke-width="1"></path><path d="M122.03932499999999 67.094595c-1.8900000000000001 0 -3.4425 1.55223 -3.4425 3.44223 0 0.54 0.135 1.08 0.40499999999999997 1.6199999999999999h6.075c0.27 -0.47250000000000003 0.40499999999999997 -1.0125 0.40499999999999997 -1.6199999999999999 0 -1.8900000000000001 -1.5525 -3.44223 -3.4425 -3.44223Z" fill="#000000" stroke-width="1"></path><path d="M91.7325 68.174325c0 0.5967 -0.48329999999999995 1.08 -1.08 1.08 -0.596025 0 -1.08 -0.48329999999999995 -1.08 -1.08 0 -0.596025 0.483975 -1.0797299999999999 1.08 -1.0797299999999999 0.5967 0 1.08 0.483705 1.08 1.0797299999999999Z" fill="#ffffff" stroke-width="1"></path><path d="M121.296825 68.174325c0 0.5967 -0.48329999999999995 1.08 -1.08 1.08s-1.08 -0.48329999999999995 -1.08 -1.08c0 -0.596025 0.48329999999999995 -1.0797299999999999 1.08 -1.0797299999999999s1.08 0.483705 1.08 1.0797299999999999Z" fill="#ffffff" stroke-width="1"></path><path d="m104.8275 69.998175 -3.5100000000000002 11.272499999999999c-0.7425 2.2950000000000004 1.0125 4.6575 3.4425 4.6575h5.13c2.4299999999999997 0 4.1175 -2.3625 3.4425 -4.6575l-3.4425 -11.272499999999999c-0.8099999999999999 -2.4299999999999997 -4.2525 -2.4299999999999997 -5.0625 0Z" fill="#ed9200" stroke-width="1"></path><path d="m142.626825 29.362365000000004 -2.835 -1.4175c-2.025 -1.0125 -3.8474999999999997 -2.3625 -5.4675 -3.9149999999999996l-5.534999999999999 -5.534999999999999c-4.185 -4.185 -10.3275 -5.534999999999999 -15.8625 -3.6450000000000005 -3.5775 1.2825 -7.492500000000001 1.2825 -11.1375 0 -4.9275 -2.4299999999999997 -10.8 -1.485 -14.647499999999999 2.4299999999999997l-6.8175 6.75c-1.6199999999999999 1.6199999999999999 -3.4425 2.9025 -5.4675 3.9149999999999996l-2.835 1.4175c-5.2646625 2.6325000000000003 -8.0996625 8.37 -7.0871625 14.175l3.7796624999999997 20.7225c0.40499999999999997 2.0925 2.16 3.5776350000000003 4.2525 3.645135 0 0 -0.40499999999999997 -5.872635 -0.675 -9.720135 -0.135 -1.9574999999999998 0.675 -3.8474999999999997 2.0925 -5.13l1.2825 -1.08c1.6875 -1.485 2.6325000000000003 -3.7125000000000004 2.6325000000000003 -5.94v-5.8725c0 -1.6199999999999999 1.1475000000000002 -3.105 2.7 -3.5100000000000002 4.32 -1.08 13.5 -2.9025 26.2575 -2.9025 12.757499999999999 0 21.9375 1.8225000000000002 26.2575 2.9025 1.6199999999999999 0.40499999999999997 2.7 1.8225000000000002 2.7 3.5100000000000002v5.805c0 2.2950000000000004 0.9450000000000001 4.455 2.6325000000000003 5.94l1.4175 1.2149999999999999c1.485 1.2825 2.2275 3.1725 2.0925 5.13 -0.27 3.7800000000000002 -0.675 9.585135000000001 -0.675 9.585135000000001 2.025 -0.135 3.7800000000000002 -1.620135 4.1175 -3.645135l3.7800000000000002 -20.7225c1.1475000000000002 -5.7375 -1.7550000000000001 -11.475 -6.952500000000001 -14.107499999999998Z" fill="#f1a11e" stroke-width="1"></path><path d="M107.325 92.54182499999999c-3.6450000000000005 0 -7.0200000000000005 -0.8775000000000001 -9.9225 -2.3625 -0.9450000000000001 -0.54 -2.025 0.6074999999999999 -1.4175 1.5525 2.4299999999999997 3.7125000000000004 6.547499999999999 6.1425 11.34 6.1425s8.91 -2.4299999999999997 11.34 -6.1425c0.6074999999999999 -0.9450000000000001 -0.47250000000000003 -2.025 -1.4175 -1.5525 -2.9025 1.485 -6.277500000000001 2.3625 -9.9225 2.3625Z" fill="#990839" stroke-width="1"></path></svg>